<?xml version="1.0" encoding="UTF-8" standalone="no"?>
<svg
   xmlns:dc="http://purl.org/dc/elements/1.1/"
   xmlns:cc="http://creativecommons.org/ns#"
   xmlns:rdf="http://www.w3.org/1999/02/22-rdf-syntax-ns#"
   xmlns:svg="http://www.w3.org/2000/svg"
   xmlns="http://www.w3.org/2000/svg"
   xmlns:sodipodi="http://sodipodi.sourceforge.net/DTD/sodipodi-0.dtd"
   xmlns:inkscape="http://www.inkscape.org/namespaces/inkscape"
   width="2040"
   height="1070"
   viewBox="0 0 539.74999 283.10417"
   version="1.1"
   id="svg10393"
   sodipodi:docname="0.svg"
   inkscape:version="1.0.2 (e86c870879, 2021-01-15)">
  <defs
     id="defs10387" />
  <sodipodi:namedview
     id="base"
     pagecolor="#3a3a3a"
     bordercolor="#666666"
     borderopacity="1.0"
     inkscape:pageopacity="0.09803922"
     inkscape:pageshadow="2"
     inkscape:zoom="0.49497475"
     inkscape:cx="929.65917"
     inkscape:cy="657.51449"
     inkscape:document-units="px"
     inkscape:current-layer="layer1"
     inkscape:document-rotation="0"
     showgrid="false"
     units="px"
     inkscape:snap-global="false"
     showguides="false"
     inkscape:guide-bbox="true"
     inkscape:window-width="1920"
     inkscape:window-height="1016"
     inkscape:window-x="0"
     inkscape:window-y="27"
     inkscape:window-maximized="1" />
  <metadata
     id="metadata10390">
    <rdf:RDF>
      <cc:Work
         rdf:about="">
        <dc:format>image/svg+xml</dc:format>
        <dc:type
           rdf:resource="http://purl.org/dc/dcmitype/StillImage" />
        <dc:title />
      </cc:Work>
    </rdf:RDF>
  </metadata>
  <g
     inkscape:label="Ebene 1"
     inkscape:groupmode="layer"
     id="layer1">
    <g
       id="g10465"
       transform="matrix(1.5914427,-1.6044202,1.6044202,1.5914427,-464.06095,242.32033)"
       style="opacity:1;stroke-width:0.32091853;stroke-miterlimit:4;stroke-dasharray:none">
      <path
         d="m 282.02826,281.80191 -3.00989,2.65018 -1.63637,1.44795 -0.78347,0.54354 -0.38621,0.24942 -0.43483,0.25175 -0.62689,0.26011 -0.65056,0.21125 -0.63333,0.10247 -0.62419,0.0397 -0.57498,-0.0353 -0.71934,-0.11744 -0.762,-0.15029 -0.79154,-0.36022 -0.75002,-0.47842 -0.82593,-0.63269 -12.16796,-12.03003 -4.29406,-4.31956 -2.90372,-2.93652 -7.44008,-7.56673 -12.88198,-12.86214 -0.75427,-0.66755 -1.00777,-0.86482 -4.324,-3.70018 -7.42105,-6.21264"
         style="fill:none;stroke:#ffffff;stroke-width:0.46832328;stroke-linecap:round;stroke-linejoin:round;stroke-miterlimit:4;stroke-dasharray:none;stroke-opacity:1;opacity:1"
         id="path6363"
         sodipodi:nodetypes="ccccccccccccccccccccccccc" />
      <path
         d="m 232.25148,251.5084 -14.83622,-14.91476 -2.61029,-2.67859 -2.82681,-2.86548 -2.84666,-2.82079 -2.83607,-2.92972 -1.98261,-2.1128 -1.32347,-1.32935 -0.41413,-0.54204 -0.20849,-0.38629 -0.10397,-0.43607 0.0368,-0.53 0.31457,-0.88156 0.8648,-1.41797 0.59,-1.13212 0.42416,-1.28455 0.23087,-0.94449 0.20293,-1.20028 0.11719,-1.44998 -0.003,-1.74935 -0.22706,-1.74998 -0.2264,-0.86408 -0.3232,-1.07967 -0.5977,-1.31246 -0.61534,-1.07705 -0.62098,-0.88579 -1.10107,-1.25606 -1.69481,-1.6992 -4.29805,-3.9388 -4.26684,-3.99746 -3.87576,-4.08293 -3.86458,-4.43018 -4.61576,-5.61229 -2.47151,-3.37263 -1.86732,-2.60687 -2.53255,-3.8197 -4.22507,-6.84375 -2.51986,-4.64886 -0.75105,-1.63588 -0.93419,-1.91766 -0.34352,-0.80191 -0.19775,-0.62066 -0.10289,-0.66235 0.0649,-0.47104 0.21774,-0.57668 0.24324,-0.50397 0.38742,-0.37541 0.45957,-0.3012 0.63306,-0.22522 0.99504,-0.18683 0.8358,-0.14283 1.68677,-0.21698 3.16224,-0.41712 4.89227,-0.8849 0.86057,-0.42545 0.58493,-0.43133 0.55624,-0.57536 0.39365,-0.69564 0.26023,-0.66834 0.12968,-0.55881 0.0674,-0.68349 -0.0576,-1.27524 -0.18362,-2.17849 -0.12735,-3.23561 -0.17527,-7.08954 -0.0906,-2.55947 0.0113,-0.98372 -0.0407,-1.62482 -0.002,-1.25698 0.0763,-0.90609 0.13305,-0.75572 0.0931,-0.40472 0.22619,-0.56907 0.293,-0.57358 0.38989,-0.56726 0.75971,-0.84299 1.27811,-0.9889 3.84533,-2.85962 6.69006,-4.67005 1.78477,-1.14988 1.62317,-0.95131 1.82579,-0.94087 1.65086,-0.6974 1.41655,-0.52994 1.83401,-0.64283 2.00643,-0.70579 0.39869,-0.11009 3.54172,-1.23985 2.79922,-1.15787 1.64152,-0.83287 2.11002,-1.192875 2.09168,-1.279056 1.61648,-0.931629 1.18975,-0.787048 0.95742,-0.47042 1.17455,-0.183761 1.20899,0.46105 1.40144,1.256058 1.37601,1.217327 1.66424,1.283328 2.66881,1.434036 1.70002,0.65076 1.67052,0.40328 1.24925,0.19469 2.09532,0.12201 1.81222,0.14297 1.45131,0.14927 1.52385,0.26614 1.66943,0.48512 1.3592,0.51211 1.47154,0.64778 1.49449,0.7938 1.49856,0.95203 1.30516,1.0141 0.98153,0.85456 0.72496,0.65017 1.39876,1.52012 1.13415,1.47439 1.02869,1.629 0.73204,1.28938 0.55652,1.1897 0.60446,1.44243 0.44144,1.29033 0.39781,1.56407 1.25236,6.47951 2.0904,11.65618 0.21368,1.29932 0.34104,2.03293 0.22356,1.31948 0.21455,1.15543 0.27232,1.46361 0.3654,2.12205 0.13875,0.98452 -0.049,0.95478 -0.38514,0.7819 -0.76549,0.56415 -1.10647,0.27258 -1.36784,0.3931 -1.66579,0.84928 -1.48539,1.24361 -1.35546,1.36832 -0.91665,1.19383 -0.48028,0.89039 -0.39123,1.08056 -0.36089,1.27035 -2.69771,14.20571 -0.73836,4.51716 -0.21752,2.59121 0.0457,3.98256 0.0952,1.84926 0.32316,3.11114 0.46403,2.50494 0.54703,2.28696 0.74919,2.55274 0.85895,2.25638 1.80669,3.85169 1.37187,2.35427 1.54353,2.2115 1.31811,1.67587 1.41696,1.69488 1.35271,1.50075 1.6544,1.66569 2.2052,1.95841 3.47116,3.05014 4.55463,4.00259 2.96651,2.61741 0.51089,0.35011 0.46195,0.32153 0.47487,0.19357 0.49431,0.19675 0.57632,0.11622 0.60492,0.0946 0.71277,0.0173 3.52921,-0.38449 3.86615,-0.50363 3.20465,-0.4039 0.67771,-0.0497 0.45234,0.006 0.42349,0.0273 0.39419,0.0963 0.31137,0.1647 0.45298,0.25251 3.49609,2.99726 1.26102,1.09221 1.76961,1.46472 4.30244,3.63146 3.4423,2.94745 2.58864,2.21612 2.66444,2.35757 1.47086,1.39128 1.09399,1.16563 1.09348,1.31028 1.00454,1.33524 0.90904,1.35619 0.80927,1.32978 0.93614,1.90118 0.76059,1.67569 0.74372,1.89416 1.09319,3.30367 0.91714,3.16938 0.46279,1.72008 1.25215,4.14236 0.97437,3.38561 0.82973,2.99332 0.9204,3.08821 2.49932,9.00165 0.42529,1.90861 0.0817,1.07404 -0.1821,1.07139 -0.65361,0.93965 -0.7423,0.60244 -0.75037,0.38857 -0.91381,0.37899 -0.9274,0.36819 -1.21719,0.47059 -3.39896,1.30635 -3.2826,1.30203 -3.9965,1.52833 -6.53612,2.59136 -1.58578,0.47497 -0.88618,0.21237 -0.87348,0.10619 -0.68509,-10e-4 -0.68192,-0.0483 -0.89853,-0.15311 -0.92463,-0.32244 -0.78564,-0.39828 -0.97578,-0.64488 -0.86924,-0.67804 -0.81316,-0.88724 -0.48789,-0.72213 -6.99723,-12.69349 -2.64779,-4.492 -1.21383,-1.85358 -0.44082,-0.47215 -0.48193,-0.33682 -0.56638,-0.17165 -0.54669,0.0298 -0.44425,0.1576 -0.42443,0.32191 -0.56281,0.54054 -1.99613,2.34165 -4.04311,4.68812 -0.97906,0.88681 -0.84879,0.5662 -1.054,0.55065 -1.38962,0.37941 -1.32546,0.069 -1.18921,-0.20391 -1.11619,-0.30726 -0.77858,-0.32103 -0.65299,-0.41064 -0.65758,-0.50976 -0.8984,-0.8024 -1.30602,-1.28956 -8.2346,-8.22109 -18.60794,-18.70858 z"
         style="fill:none;stroke:#ffffff;stroke-width:1.40496985;stroke-linecap:round;stroke-linejoin:round;stroke-miterlimit:4;stroke-dasharray:none;stroke-opacity:1"
         id="path7013"
         sodipodi:nodetypes="cccccccccccccccccccccccccccccccccccccccccccccccccccccccccccccccccccccccccccccccccccccccccccccccccccccccccccccccccccccccccccccccccccccccccccccccccccccccccccccccccccccccccccccccccccccccccccccccccccccccccccccccccccccccccccccccccccccccccccccccccccccccccccccccccc" />
    </g>
    <path
       style="fill:none;stroke:#ffffff;stroke-width:1.05833333;stroke-linecap:butt;stroke-linejoin:miter;stroke-miterlimit:4;stroke-dasharray:none;stroke-opacity:1"
       d="m 312.47273,263.16002 3.8e-4,10.78204"
       id="path11292"
       sodipodi:nodetypes="cc" />
  </g>
</svg>
