<?xml version="1.0" encoding="UTF-8" standalone="no"?>
<svg
   xmlns:dc="http://purl.org/dc/elements/1.1/"
   xmlns:cc="http://creativecommons.org/ns#"
   xmlns:rdf="http://www.w3.org/1999/02/22-rdf-syntax-ns#"
   xmlns:svg="http://www.w3.org/2000/svg"
   xmlns="http://www.w3.org/2000/svg"
   xmlns:sodipodi="http://sodipodi.sourceforge.net/DTD/sodipodi-0.dtd"
   xmlns:inkscape="http://www.inkscape.org/namespaces/inkscape"
   width="2280"
   height="1180"
   viewBox="0 0 603.24999 312.20834"
   version="1.1"
   id="svg8"
   inkscape:version="1.0.2 (e86c870879, 2021-01-15)"
   sodipodi:docname="1.svg">
  <defs
     id="defs2" />
  <sodipodi:namedview
     id="base"
     pagecolor="#818181"
     bordercolor="#666666"
     borderopacity="1.0"
     inkscape:pageopacity="0"
     inkscape:pageshadow="2"
     inkscape:zoom="0.49497475"
     inkscape:cx="1366.3652"
     inkscape:cy="526.16659"
     inkscape:document-units="px"
     inkscape:current-layer="layer1"
     inkscape:document-rotation="0"
     showgrid="false"
     units="px"
     inkscape:snap-global="false"
     inkscape:window-width="1920"
     inkscape:window-height="1011"
     inkscape:window-x="0"
     inkscape:window-y="32"
     inkscape:window-maximized="1" />
  <metadata
     id="metadata5">
    <rdf:RDF>
      <cc:Work
         rdf:about="">
        <dc:format>image/svg+xml</dc:format>
        <dc:type
           rdf:resource="http://purl.org/dc/dcmitype/StillImage" />
        <dc:title></dc:title>
      </cc:Work>
    </rdf:RDF>
  </metadata>
  <g
     inkscape:label="Ebene 1"
     inkscape:groupmode="layer"
     id="layer1">
    <path
       style="opacity:1;fill:none;stroke:#ffffff;stroke-width:3.175;stroke-linecap:round;stroke-linejoin:round;stroke-miterlimit:4;stroke-dasharray:none;stroke-opacity:1"
       d="m 400.6909,228.76668 -49.09478,-29.84161 -79.86881,-48.46644 -29.34198,-17.71012 -8.48016,-5.24443 -9.09644,-5.37673 -11.37341,-5.97289 -2.15453,-1.0834 -1.44763,-0.5125 -1.74848,-0.21371 -1.52464,0.0152 -1.42296,0.34193 -1.40847,0.48003 -1.58201,1.06302 -7.34438,6.80105 -6.14742,5.20865 -1.16615,0.58701 -1.24417,0.46277 -1.57627,0.46394 -1.69726,0.27446 -1.9025,0.19967 -1.2627,-0.0119 -1.27521,-0.13097 -1.29242,-0.2953 -1.4143,-0.51597 -14.00983,-5.96034 -3.39974,-1.44055 -1.61006,-0.82728 -1.0841,-0.57156 -2.06094,-1.30996 -2.22989,-1.65816 -2.13226,-1.66838 -2.37407,-1.8688 -1.911,-1.4458 -1.64469,-1.20236 -1.73647,-1.27429 -2.06026,-1.40184 -5.12534,-3.48428 -5.85538,-3.67728 -4.90064,-3.037507 -2.75562,-1.600559 -2.74515,-1.502981 -1.26723,-0.697521 -1.23043,-0.667711 -2.34919,-1.212306 -2.09313,-0.974361 -1.74055,-0.780281 -3.75047,-1.597263 -1.97588,-0.820556 -2.87934,-1.082849 -2.078209,-0.701739 -2.471297,-0.741133 -2.918834,-0.88753 -3.577085,-0.982542 -3.991895,-1.185665 -4.50398,-1.631309 -5.151645,-1.986941 -5.083139,-2.116606 -4.129375,-1.881103 -2.698432,-1.239408 -2.283328,-1.109437 -2.275855,-1.012857 -2.46522,-1.18458 -2.142987,-1.05088 -1.808,-0.968605 -0.605397,-0.401083 -0.612412,-0.46775 -0.554861,-0.538787 -0.636403,-0.696338 -0.582349,-0.800711 -0.421564,-0.851288 -0.391711,-0.888123 -0.18011,-1.003357 -0.146161,-0.922498 0.02334,-0.770771 0.0013,-1.044125 0.122118,-1.803833 0.08914,-4.565572 -0.110487,-1.846074 -0.203744,-1.254098 -0.312938,-1.091613 -0.377316,-1.158913 -0.602789,-1.150955 -0.82471,-1.237745 -0.80535,-1.044523 -0.810933,-0.776722 -0.767352,-0.682594 -0.913766,-0.648994 -1.154773,-0.70606 -0.956872,-0.491268 -1.083968,-0.310296 -0.993674,-0.292927 -0.886781,-0.198357 -1.187987,-0.131306 -0.916339,-0.02566 -0.649283,-0.08373 -0.993398,0.008 -1.047559,0.13401 -2.199727,0.354 -9.989635,1.365963 -3.137341,0.374195 -0.952441,0.09996 -0.934117,-0.04641 -0.708128,-0.118272 -0.551337,-0.206944 -0.457206,-0.250527 -0.36657,-0.327445 -0.380331,-0.458404 -0.214819,-0.442072 -0.228566,-0.573032 -0.03449,-0.328594 0.01612,-0.533714 0.114768,-0.74147 0.0884,-0.738007 0.257419,-0.942911 0.273176,-1.325298 1.334279,-6.091655 1.993209,-8.644556 0.436448,-1.240401 0.315926,-1.008937 0.313669,-0.796046 0.536371,-0.990516 0.60948,-0.833091 0.923311,-0.92936 0.867107,-0.749634 1.138277,-0.869241 1.346079,-0.827457 1.52406,-0.556156 1.579766,-0.399937 1.50611,-0.229005 1.30535,0.04104 1.200151,0.0042 1.378811,0.256019 1.150751,0.210873 1.923376,0.542654 1.595818,0.556482 1.711428,0.660828 1.922989,0.924872 2.370474,1.474678 3.509818,2.406269 3.039733,2.418277 2.08036,1.947575 2.574975,2.721081 2.574217,3.220165 2.743569,3.926073 2.006713,3.637531 2.013594,3.703253 2.046945,3.699752 0.812123,1.407319 0.677637,1.089221 0.659346,1.066441 0.816623,1.000633 0.753653,0.850139 1.178911,1.139417 1.251431,0.929613 1.318006,0.697383 1.63132,0.846851 2.357318,0.830148 2.336655,0.602353 59.386248,15.37429 21.29453,5.562782 45.91613,11.89129 23.80083,6.131884 17.91555,4.659828 10.39773,2.687761 20.34729,5.22357 35.16447,9.19925 26.57248,7.062 2.51392,0.36557 1.39258,-0.38046 1.88899,-1.36751 5.01486,-5.44448 2.91881,-3.04523 0.79546,-0.82157 0.5822,-0.52871 0.57564,-0.52503 0.55603,-0.39058 0.58585,-0.42739 0.5297,-0.32041 0.46791,-0.28982 0.4754,-0.21832 0.50885,-0.19784 0.5472,-0.15376 0.68062,-0.14373 0.82161,-0.0621 0.76231,-0.008 0.50789,0.0911 0.50289,0.0435 0.54884,0.18314 0.65484,0.2298 0.77853,0.30661 0.68806,0.35763 0.46692,0.32428 0.62314,0.50975 0.59839,0.51345 0.95385,1.02431 4.2796,5.63679 0.83867,1.04102 0.72381,0.887 0.64338,0.76299 0.84429,0.77322 1.00858,0.75598 0.86035,0.60545 1.45774,0.88574 15.76193,8.63632 10.9352,5.76311 2.396,1.12416 2.74265,1.19728 4.98241,1.73316 127.89462,32.85709 11.51455,3.00712 1.54851,0.53323 1.45088,0.54344 1.32342,0.59052 1.21341,0.54783 1.48983,0.82388 1.96724,1.10887 1.48018,0.96138 1.30149,1.02375 1.27164,1.06058 1.27863,1.12727 1.21086,1.10066 1.06265,0.9501 1.18427,1.16846 1.14117,1.41121 1.17359,1.38428 0.97453,1.38255 1.12329,1.76945 0.78514,1.53311 0.81677,1.77273 1.17905,2.26868 0.68015,1.99202 0.70249,1.98332 0.5005,1.68718 0.35036,1.83319 0.27532,1.42787 0.25655,1.76841 0.19816,2.12853 0.20455,2.1474 1.70453,15.87044 3.64947,35.04541 0.25176,2.66928 0.15746,1.7786 -0.0218,1.3944 -0.0213,1.64362 -0.0494,1.50412 -0.12857,1.74452 -0.37324,1.64918 -0.34777,1.47245 -0.60937,1.45937 -0.77039,1.66359 -0.93508,1.9035 -0.88504,1.40306 -0.74885,1.11442 -0.74764,1.06095 -0.94613,1.19416 -0.88624,0.97127 -0.89677,0.81807 -1.10663,0.99708 -1.12716,0.88189 -1.18639,0.87045 -1.21591,0.67465 -1.44247,0.72866 -1.91153,0.89001 -2.00265,0.68892 -2.32408,0.6098 -2.6403,0.4457 -2.65942,0.2295 -2.57972,-0.20692 -2.21615,-0.26573 -2.18313,-0.64239 -2.10625,-0.79779 -2.32423,-1.19602 -2.42642,-1.46205 -1.98978,-1.27524 -1.68459,-1.21701 -1.39597,-1.33579 -1.13216,-1.22422 -0.8562,-1.19854 -0.79836,-1.27635 -0.44579,-1.08227 -0.26997,-0.9659 -0.16786,-0.91161 -0.0727,-0.92162 0.0189,-1.19602 0.0828,-1.73475 0.35041,-1.90966 0.66754,-2.26631 0.62864,-1.96528 1.0043,-2.61786 1.31881,-3.06159 1.50685,-3.25338 1.41094,-2.54156 1.58381,-3.14454 1.56143,-2.99063 10.1793,-16.90976 1.69289,-2.70405 0.81537,-1.3823 0.53972,-1.2795 0.75855,-1.33829 0.39121,-1.15835 0.46528,-1.33525 0.39289,-1.30267 0.27479,-1.48768 0.20699,-1.51428 0.0561,-2.08333 -0.11465,-2.48688 -0.26092,-1.79737 -0.541,-1.8973 -0.44671,-1.55368 -0.6206,-1.45834 -0.68953,-1.54398 -0.99131,-1.33048 -0.93289,-0.9853 -0.85127,-0.83989 -0.88111,-0.80305 -0.89483,-0.63551 -0.81327,-0.47797 -0.69519,-0.29297 -0.75947,-0.2862 -0.85245,-0.20904 -0.81315,-0.15541 -0.97243,-0.0905 -0.90076,-0.0499 -0.85995,0.0179 -1.17354,0.19546 -0.87077,0.23582 -0.9608,0.34155 -1.0524,0.40897 -0.93016,0.48448 -0.75017,0.44462 -0.92842,0.62705 -1.20629,0.93572 -1.8038,1.29569 -1.70627,1.27784 -2.56857,1.76212 -2.63275,1.68683 -2.167,1.28237 -1.99377,0.88931 -2.06105,0.95658 -1.97647,0.80615 -2.27866,0.97408 -2.46813,0.82236 -2.63892,0.77526 -2.61982,0.64085 -2.72867,0.55118 -2.8372,0.46637 -2.64281,0.42178 -2.89507,0.23154 -2.59472,-0.082 -2.21775,0.0402 -2.43026,-0.10556 -2.49929,-0.0969 -2.08677,-0.25525 -2.88518,-0.55737 -2.64273,-0.54863 -2.85685,-0.71614 -2.97486,-0.90322 -2.62035,-0.90078 -2.24236,-0.81006 -2.61932,-1.25137 -2.85421,-1.59262 -2.77636,-1.7982 -2.97099,-1.95042 -2.69561,-1.99843 -1.77824,-1.51363 -1.928,-1.55468 -1.56337,-1.42467 -1.27802,-1.09229 -1.58064,-1.16058 -1.67959,-0.99666 -1.44661,-0.70331 -1.51527,-0.62774 -1.45809,-0.47623 -1.8339,-0.47751 -1.61166,-0.17201 -1.60101,-0.002 -1.68266,-0.002 -1.92203,0.0758 -1.88751,0.34253 -1.83709,0.52502 -0.98925,0.36863 -1.01802,0.46851 -1.46722,0.75502 -1.83085,1.18539 -1.87088,1.52867 -1.35519,1.406 -0.59913,0.85269 -0.41833,0.44112 -0.34466,0.50079 -0.70858,1.01036 -0.79072,1.3286 -0.61595,1.2104 -0.33595,1.11677 -0.20663,0.88102 0.0168,0.66892 -0.058,1.74184 0.0503,1.74455 1.01433,9.73115 0.59417,5.10965 0.0424,1.7607 -0.0919,1.12211 -0.18437,0.81123 -0.11852,0.47706 -0.156,0.3486 -0.22394,0.3894 -0.26077,0.3596 -0.33443,0.29989 -0.35842,0.36982 -0.34193,0.22849 -0.44456,0.19109 -0.51635,0.12648 -0.45955,0.0482 -0.61957,0.0495 -0.55718,-0.006 -0.72032,-0.14418 -1.12208,-0.59854 -1.68652,-0.92327 -7.39185,-4.51618 z"
       id="path7005"
       sodipodi:nodetypes="cccccccccccccccccccccccccccccccccccccccccccccccccccccccccccccccccccccccccccccccccccccccccccccccccccccccccccccccccccccccccccccccccccccccccccccccccccccccccccccccccccccccccccccccccccccccccccccccccccccccccccccccccccccccccccccccccccccccccccccccccccccccccccccccccccccccccccccccccccccccccccccccccccccccccccccccccccccccccccccccccccccccccccccccccccccccccccccccccccccccccccccccccccccccccccccccccccccccccccccccccccccccccccccccccccc" />
    <path
       style="opacity:1;fill:none;stroke:#fffdfd;stroke-width:1.05833;stroke-linecap:round;stroke-linejoin:round;stroke-miterlimit:4;stroke-dasharray:none;stroke-opacity:1"
       d="m 431.27556,206.29103 -11.3286,8.11541 -7.87809,5.7446 -4.6425,3.05525 -2.14838,1.06701 -2.15553,0.36781 -1.47535,0.1231 -1.67751,-0.29841 -2.98827,-1.20414 -5.0818,-2.9183 -2.53439,-1.64806 -1.46945,-1.21601 -0.89466,-1.08475 -0.68258,-1.14554 -0.65477,-1.20746 -0.55268,-1.29133 -0.39849,-1.11569 -0.44677,-0.89444 -0.45282,-0.87706 -0.53346,-0.76522 -0.45373,-0.71368 -0.75528,-0.85417 -1.01816,-0.83684 -1.27568,-0.81424 -1.43848,-0.81007 -11.52579,-5.5461 -14.92903,-7.01774 -10.31511,-5.01043 -9.07408,-4.40567 -11.00082,-6.45218 -13.30774,-8.23692 -13.65545,-7.9422 -4.0356,-2.15096 -2.14144,-1.11516 -1.64748,-0.8801 -2.14324,-1.23722 -5.24291,-2.9137 -7.91527,-4.72201 -14.40706,-8.1398 -14.08202,-7.15585"
       id="path7029"
       sodipodi:nodetypes="cccccccccccccccccccccccccccccccccccccccc" />
    <path
       style="fill:none;stroke:#ffffff;stroke-width:1.05833;stroke-linecap:butt;stroke-linejoin:miter;stroke-miterlimit:4;stroke-dasharray:none;stroke-opacity:1"
       d="m 305.71848,184.44384 13.4569,-22.19274"
       id="path7931"
       sodipodi:nodetypes="cc" />
  </g>
</svg>
