<?xml version="1.0" encoding="UTF-8" standalone="no"?>
<!-- Created with Inkscape (http://www.inkscape.org/) -->

<svg
   width="2090"
   height="1090"
   viewBox="0 0 552.97915 288.39584"
   version="1.1"
   id="svg5"
   inkscape:version="1.1 (c68e22c387, 2021-05-23)"
   sodipodi:docname="13.svg"
   xmlns:inkscape="http://www.inkscape.org/namespaces/inkscape"
   xmlns:sodipodi="http://sodipodi.sourceforge.net/DTD/sodipodi-0.dtd"
   xmlns="http://www.w3.org/2000/svg"
   xmlns:svg="http://www.w3.org/2000/svg">
  <sodipodi:namedview
     id="namedview7"
     pagecolor="#1a1a1a"
     bordercolor="#666666"
     borderopacity="1.0"
     inkscape:pageshadow="2"
     inkscape:pageopacity="0"
     inkscape:pagecheckerboard="0"
     inkscape:document-units="mm"
     showgrid="false"
     units="px"
     inkscape:snap-others="false"
     inkscape:snap-nodes="false"
     inkscape:zoom="0.47433592"
     inkscape:cx="898.0977"
     inkscape:cy="704.14233"
     inkscape:window-width="1920"
     inkscape:window-height="1011"
     inkscape:window-x="0"
     inkscape:window-y="32"
     inkscape:window-maximized="1"
     inkscape:current-layer="layer1" />
  <defs
     id="defs2" />
  <g
     inkscape:label="Ebene 1"
     inkscape:groupmode="layer"
     id="layer1">
    <path
       style="opacity:1;fill:none;stroke:#ffffff;stroke-width:1.05833;stroke-linecap:round;stroke-linejoin:round;stroke-miterlimit:4;stroke-dasharray:none;stroke-opacity:1"
       d="m 348.50278,79.306195 8.16905,-4.916967 4.56075,-1.290266 3.80654,-0.161845 4.06517,0.50582 4.75826,1.113955 4.23271,1.247703 3.308,1.217436 3.60231,1.632041 4.1786,2.378866 4.23615,2.672734 3.89255,2.671019 2.42543,1.942021 2.54813,2.178119 2.58123,2.361078 5.15945,5.443087 12.18827,13.850394 46.40229,53.00232 12.10012,13.04175 11.30808,11.58765 13.16915,13.379 8.53035,9.1526 4.21089,4.54614 8.38528,9.17469"
       id="path5113"
       sodipodi:nodetypes="cccccccccccccccccccccccc" />
    <path
       style="opacity:1;fill:none;stroke:#ffffff;stroke-width:3.175;stroke-linecap:round;stroke-linejoin:round;stroke-miterlimit:4;stroke-dasharray:none;stroke-opacity:1"
       d="m 350.19888,77.135461 2.4902,-1.753976 3.18273,-1.771592 3.6546,-1.407431 4.13894,-0.823608 3.45315,-0.24712 4.42036,0.01033 1.44559,0.135371 1.66509,0.261452 2.57854,0.494143 1.69897,0.457307 3.25439,1.295434 4.41379,1.781691 5.39697,2.658632 4.95941,3.066474 4.59208,3.258169 4.34992,3.864228 5.33967,5.527822 8.31979,9.618523 60.03661,67.85074 43.881,50.53668 7.44198,8.69827 2.5963,3.09478 2.16596,3.58027 1.2718,2.79344 0.57068,2.09314 0.35945,1.90248 0.33768,2.15021 0.31967,1.61454 -0.0513,2.77358 -0.31073,2.47807 -0.44304,2.3033 -0.99815,3.96345 -1.55993,5.39225 -1.54114,3.67 -1.91426,2.89722 -2.00629,1.83306 -2.28506,1.46058 -2.50434,1.05226 -2.64394,0.60738 -2.71431,0.14874 -2.89212,-0.31053 -2.63607,-0.81084 -2.50553,-1.25178 -2.08783,-1.50135 -1.8027,-1.76713 -5.449,-7.57358 -16.92472,-24.60779 -3.53482,-4.91772 -2.12482,-2.25396 -2.14161,-1.74701 -2.57153,-1.39505 -2.75054,-0.99047 -3.24167,-0.57887 -3.85064,0.0765 -4.53545,0.0742 -3.94061,-0.17867 -2.61646,-0.51163 -2.5189,-0.86603 -2.37573,-1.20411 -2.18682,-1.51897 -1.95635,-1.80618 -1.69094,-2.05862 -1.39039,-2.27177 -1.00502,-2.45289 -1.19919,-3.80808 -3.63145,-11.65228 -1.21284,-3.68064 -1.20794,-2.70736 -1.51064,-2.40244 -1.9027,-2.12976 -2.16506,-1.85494 -2.39712,-1.54975 -0.93804,-0.44111 -1.64509,-0.7758 -2.71892,-0.86113 -2.81149,-0.49343 -5.2956,-0.0964 -6.76015,-0.12672 -2.82217,-0.0612 -2.51916,-0.24722 -3.05163,-0.66271 -3.0819,-1.26206 -3.07319,-1.71003 -2.71435,-2.05579 -2.65244,-2.77782 -2.05123,-3.02586 -1.43673,-2.88739 -1.07871,-3.50486 -0.22932,-3.44179 0.39216,-3.65948 1.18616,-4.44679 2.44092,-6.66662 2.68127,-8.65228 0.53806,-2.01606 0.25104,-2.89772 -0.19297,-2.87274 -0.56037,-3.154 -1.01273,-3.0344 -1.44711,-2.85239 -1.85031,-2.6153 -2.20839,-2.3123 -2.52454,-1.96806 -4.52017,-2.38153 -4.59927,-2.1474 -3.80304,-1.65717 -3.82185,-1.37976 -3.16122,-0.92371 -2.59174,-0.51251 -2.37189,-0.46637 -3.38905,-0.3513 -2.86373,-0.19238 -6.09448,0.1099 -3.17013,0.29774 -3.63409,0.34579 -4.20773,0.74037 -4.00024,1.37332 -7.60222,3.73503 -4.03306,2.23933 -4.07535,2.5903 -3.22179,2.63005 -1.95244,1.89188 -1.40549,1.46065 -1.34673,1.40457 -3.08007,3.81141 -21.9834,28.03904 -1.99744,2.50999 -1.52289,1.47972 -2.92416,0.64668 -29.81795,3.67209 -5.91133,0.40274 -1.89626,-0.19482 -1.2165,-0.67861 -1.03874,-0.93018 -0.80984,-1.13404 -0.53635,-1.28558 -0.7381,-2.39526 -2.0446,-9.09108 -1.07368,-4.32885 -1.8499,-8.10916 -8.66028,-37.432482 -2.09743,-9.524428 -0.64407,-4.111572 -0.0603,-3.329339 0.45279,-3.480099 1.31957,-5.064401 2.59782,-6.198619 5.26491,-13.180435 0.74086,-2.699866 -0.31802,-2.100918 -0.80424,-1.606641 -1.26759,-1.290918 -1.64087,-0.782679 -1.81293,-0.247903 -1.72942,0.327236 -1.57025,1.014769 -1.42158,1.509753 -1.45113,2.071373 -5.55702,10.266132 -2.19696,3.764119 -3.79648,6.469899 -4.57824,7.52767 -3.26997,4.767687 -2.39525,3.034661 -3.46758,3.580671 -2.17775,1.993797 -2.92345,2.203025 -6.03737,3.679239 -6.14388,1.9897 -7.12793,1.213491 -5.28679,0.684386 -3.88995,0.218485 -3.77255,0.156827 -5.4532,-0.305949 -6.35109,-0.66617 -8.68391,-1.615082 -8.25824,-2.465055 -7.83301,-2.672154 -6.78953,-2.866555 -5.251771,-2.64567 -4.907972,-3.072911 -5.560008,-4.259838 -3.170032,-3.036019 -2.78484,-2.957571 -2.241618,-2.549573 -2.474073,-3.137368 -3.111098,-4.785993 -2.824657,-5.142655 -7.871199,-16.840015 -7.830224,-16.574754 -1.35958,-2.371576 -1.274416,-1.530998 -1.187096,-1.182491 -0.981916,-1.002409 -2.254684,-1.456743 -1.799346,-0.756728 -1.506702,-0.466719 -1.991405,-0.457476 -4.650321,-0.248147 -3.901279,0.265177 -4.771638,0.695913 -3.507987,0.968121 -4.364517,1.136535 -3.25224,1.425147 -2.259927,1.302683 -1.276232,0.796935 -1.379089,1.255006 -1.19823,1.594966 -1.266339,2.207015 -0.637823,2.10417 -0.696248,2.863739 -0.06117,3.009766 0.317059,2.640826 1.041398,3.034082 1.347912,2.882717 1.811316,2.841589 1.575417,2.061499 1.071046,1.105942 3.777193,3.86367 4.609091,3.728245 4.238386,3.278767 7.983074,5.878255 5.772815,4.005019 5.269889,3.382011 11.494966,6.952917 10.853552,5.849284 9.698632,4.901823 8.085653,3.62386 2.797962,1.197499 6.610738,2.597418 8.836098,3.107153 13.72988,4.45611 22.60942,7.28071 29.84002,9.45176 39.23765,12.515 15.23731,4.79168 3.22778,1.00867 2.38553,0.38884 2.97909,0.1928 3.68993,-0.27977 3.79639,-0.89927 4.45316,-1.50903 3.69243,-1.35095 3.65864,-1.60937 3.39552,-1.52773 3.4434,-1.90222 3.26553,-1.86059 4.78148,-3.2059 3.12466,-2.34979 2.7164,-2.34038 4.40551,-3.95738 10.53524,-10.37037 5.554,-5.38988 14.86078,-14.549355 3.46383,-3.017092 2.77953,-2.203709 2.18566,-1.491342 1.76913,-1.199502 1.54566,-1.094197 0.99896,-0.373125 0.96331,-0.236869 0.90972,-0.03736 0.88854,0.188703 1.96673,1.389038 4.20084,3.908667 2.08825,0.944426 1.38456,0.409426 1.44154,0.05199 1.4104,-0.315839 1.28578,-0.655558 1.24336,-0.927142 z"
       id="path5139"
       sodipodi:nodetypes="cccccccccccccccccccccccccccccccccccccccccccccccccccccccccccccccccccccccccccccccccccccccccccccccccccccccccccccccccccccccccccccccccccccccccccccccccccccccccccccccccccccccccccccccccccccccccccccccccccccccccccccccccccccccccccccccccccccccccccccccccccccccccccccccccccccccccccccccc" />
    <path
       style="fill:none;stroke:#fefefe;stroke-width:1.05833;stroke-linecap:butt;stroke-linejoin:miter;stroke-miterlimit:4;stroke-dasharray:none;stroke-opacity:1"
       d="M 424.60093,95.320088 409.64066,109.53831"
       id="path24626" />
  </g>
</svg>
