<?xml version="1.0" encoding="UTF-8" standalone="no"?>
<!-- Created with Inkscape (http://www.inkscape.org/) -->

<svg
   width="1910"
   height="1170"
   viewBox="0 0 505.35416 309.56251"
   version="1.1"
   id="svg21176"
   inkscape:version="1.1 (c68e22c387, 2021-05-23)"
   sodipodi:docname="15.svg"
   xmlns:inkscape="http://www.inkscape.org/namespaces/inkscape"
   xmlns:sodipodi="http://sodipodi.sourceforge.net/DTD/sodipodi-0.dtd"
   xmlns="http://www.w3.org/2000/svg"
   xmlns:svg="http://www.w3.org/2000/svg">
  <sodipodi:namedview
     id="namedview21178"
     pagecolor="#171717"
     bordercolor="#666666"
     borderopacity="1.0"
     inkscape:pageshadow="2"
     inkscape:pageopacity="0"
     inkscape:pagecheckerboard="0"
     inkscape:document-units="mm"
     showgrid="false"
     units="px"
     height="1170px"
     inkscape:snap-others="false"
     inkscape:snap-nodes="false"
     inkscape:zoom="0.47496585"
     inkscape:cx="542.14424"
     inkscape:cy="701.10304"
     inkscape:window-width="1920"
     inkscape:window-height="1011"
     inkscape:window-x="0"
     inkscape:window-y="32"
     inkscape:window-maximized="1"
     inkscape:current-layer="layer1" />
  <defs
     id="defs21173" />
  <g
     inkscape:label="Ebene 1"
     inkscape:groupmode="layer"
     id="layer1">
    <path
       style="opacity:1;fill:none;stroke:#ffffff;stroke-width:3.175;stroke-linecap:round;stroke-linejoin:round;stroke-miterlimit:4;stroke-dasharray:none;stroke-opacity:1"
       d="m 21.59481,163.78332 -5.650921,2.84126 -1.278717,0.70714 -0.702978,0.5023 -0.569119,0.53172 -0.462779,0.5952 -0.326152,0.55564 -0.225311,0.59316 -0.184485,0.69175 -0.08685,0.6153 -0.01362,0.68687 0.08756,0.6507 0.192442,0.74982 0.291466,0.64014 0.538659,0.81118 0.849567,0.9686 5.551725,4.38423 43.586269,32.40017 43.431764,32.35727 55.50157,41.18402 7.95289,5.29732 4.03793,2.10442 3.17285,1.60374 1.8045,0.53961 1.14331,0.34599 0.78135,-0.0113 0.9513,-0.0802 1.04113,-0.50299 0.8378,-0.51725 0.47829,-0.80235 0.49112,-0.76702 0.14634,-0.86168 -0.0454,-1.10322 -0.18593,-1.01605 -0.41715,-1.46315 -0.66216,-2.25066 -1.74425,-5.02664 -8.90608,-23.87588 -1.85717,-5.07215 -0.59938,-2.084 -0.42799,-1.88839 -0.27269,-1.88862 -0.21279,-2.0484 0.0121,-2.15 0.21025,-2.19843 0.36018,-2.35321 0.58586,-2.33255 0.62577,-1.91937 0.91157,-2.37599 1.07593,-2.17106 1.1947,-2.01164 1.2282,-1.81461 1.33088,-1.60838 1.73087,-1.76794 1.7925,-1.69284 2.12352,-1.65437 2.28922,-1.55163 4.57118,-2.72147 25.71241,-16.57767 3.67518,-2.46389 1.80296,-1.38203 1.86792,-1.43282 1.52942,-1.33818 1.42395,-1.7866 1.14987,-1.81912 0.97667,-1.8118 0.98377,-2.56023 0.92462,-2.63454 0.88279,-2.6888 0.60128,-1.81203 0.85854,-2.28823 1.00445,-2.08575 1.1467,-1.84757 1.42185,-1.86015 1.7666,-1.76552 2.08791,-1.32815 2.39698,-1.23484 3.8411,-1.60477 2.83726,-1.08749 2.22271,-1.26609 1.51695,-0.96816 1.61582,-1.25139 1.37141,-1.46959 1.15727,-1.54479 0.99335,-1.56151 0.71326,-1.66244 0.61193,-1.54186 0.36008,-1.86067 0.30281,-2.61675 0.43298,-4.67097 0.37449,-3.1384 0.74046,-3.07718 0.67469,-2.2486 1.08367,-2.37878 1.27536,-2.22033 1.93304,-2.41559 1.92063,-1.95713 2.2658,-1.85073 1.97851,-1.6443 2.03223,-1.44846 1.87304,-1.09405 2.39626,-1.35825 2.64634,-1.14278 1.93171,-0.78885 2.17834,-0.57538 2.01287,-0.29748 1.64176,-0.15142 1.64576,-0.0112 1.5153,0.16093 1.51584,0.26305 1.53593,0.38361 1.74844,0.58894 6.1986,3.03194 8.15586,3.50588 8.21309,3.35733 1.77944,0.75908 1.14249,0.41387 0.89585,0.17864 0.99837,0.10916 0.92461,-0.0622 1.05511,-0.23209 1.18477,-0.51608 1.57162,-0.85967 4.20983,-2.88648 3.05048,-2.55388 2.59168,-2.32774 2.17235,-2.32686 2.41838,-2.87206 1.25053,-1.47051 1.22398,-1.88538 1.04701,-1.67839 1.1923,-1.57111 1.35144,-1.59247 1.2726,-1.26393 1.48155,-0.93551 1.62526,-0.728211 1.87006,-0.640193 2.12015,-0.450209 1.87244,-0.141475 2.09582,0.111031 1.79083,0.326443 1.66035,0.498823 1.18007,0.481671 1.11415,0.58571 1.11803,0.72099 0.87837,0.73021 1.02113,0.98745 0.81709,0.91247 0.92796,1.21811 0.96041,1.6842 0.48918,0.8663 0.68486,1.06496 0.56985,0.73906 0.70354,0.59743 0.96545,0.70161 0.91772,0.44406 1.07303,0.31134 0.99702,0.14488 1.23606,0.0312 1.19468,-0.16965 1.56803,-0.32039 5.27006,-1.53389 31.95384,-7.66016 3.90932,-0.96845 1.63619,-0.42923 1.2555,-0.45159 1.05063,-0.471879 0.9397,-0.613573 0.80502,-0.671501 1.07373,-0.956623 3.7723,-4.669521 21.69341,-27.700335 21.43394,-27.088745 8.69807,-12.003025 2.83398,-4.067292 0.86843,-1.388481 0.50448,-1.334399 0.23853,-1.281863 -0.0813,-1.15122 -0.16148,-1.066286 -0.57575,-0.945527 -0.81044,-0.763043 -0.8349,-0.455928 -0.90121,-0.283005 -0.96081,-0.04139 -0.93451,0.151595 -1.25641,0.252 -1.82876,0.664609 -7.78907,2.739601 -16.67125,5.661587 -21.46052,7.03045 -31.4111,9.731027 -21.28677,5.943715 -28.15063,7.072356 -32.77555,7.262189 -30.7431,5.622544 -10.22361,1.861353 -10.89522,1.734588 -16.9815,2.608628 -8.4032,1.255364 -4.71192,0.649902 -15.70868,2.060176 -18.41981,2.348565 -14.46915,2.513759 -4.60467,0.747199 -1.34577,0.285523 -0.91678,0.335028 -0.53508,0.392985 -0.59981,0.703619 -0.32419,0.624477 -0.18251,0.760578 -0.0161,0.686919 0.15914,0.748423 0.331,0.776757 0.54056,0.877648 3.27267,3.702223 5.7326,6.800089 4.12333,5.35561 7.09167,9.80101 7.04221,10.57438 1.40571,2.24572 0.66696,1.31109 0.29942,0.91781 0.0993,1.0613 -0.005,0.99302 -0.18197,0.86269 -0.2811,0.96765 -0.42224,0.76744 -0.52862,0.7016 -0.69957,0.7041 -0.67416,0.43021 -0.81332,0.29879 -0.88648,0.23202 -1.02569,0.0983 -1.2566,-0.002 -6.25155,-0.13075 -3.64579,-0.10908 -2.07092,-0.11545 -1.55813,-0.10583 -1.03363,-0.17947 -0.93438,-0.27969 -0.86956,-0.42168 -0.94325,-0.59058 -1.15621,-0.89331 -0.67284,-0.76934 -0.69028,-1.04676 -0.54268,-1.28379 -1.31432,-3.54417 -0.96958,-2.42364 -0.9261,-2.14929 -0.91205,-1.82426 -1.03288,-1.56431 -1.04806,-1.39808 -2.4113,-2.5066 -4.84161,-4.92693 -1.07782,-1.05943 -1.15471,-0.92422 -1.01407,-0.65744 -1.39245,-0.68226 -1.24692,-0.41088 -1.57715,-0.33018 -1.65506,-0.23056 -3.13003,0.01 -2.08136,0.0615 -1.03154,-0.0228 -1.06089,0.0304 -0.78408,0.15792 -0.60921,0.29295 -0.57074,0.39163 -0.4354,0.39014 -0.3294,0.52487 -0.22308,0.58834 -0.15422,0.58635 -0.0488,0.619 0.0529,0.68494 0.12277,0.71857 0.22699,0.71085 0.0822,0.44869 3.22689,5.36955 16.73404,27.19236 2.96546,5.16808 0.93947,1.86862 0.51669,1.28926 0.7032,1.83025 0.42828,1.76923 0.22775,1.984 0.0915,1.94988 -0.15058,1.95919 -0.25402,1.99776 -0.77876,2.80053 -1.11222,3.07144 -1.4449,3.90834 -0.90338,2.04961 -0.69264,1.50524 -1.10253,1.89703 -1.18485,1.44787 -0.82523,0.87872 -0.86142,0.6921 -0.73355,0.52054 -10.52682,5.29505 -3.66991,1.79786 -2.31196,1.05188 -1.21706,0.55028 -1.18814,0.48055 -1.46274,0.34827 -1.77838,0.19101 -1.81706,0.0853 -1.95287,-0.0131 -2.87905,-0.25624 -3.02013,-0.52235 -2.50832,-0.58145 -3.40313,-0.88841 -3.18047,-1.07765 -2.60736,-1.05368 -2.01061,-0.86884 -1.7088,-0.94637 -1.92031,-1.28237 -1.79426,-1.52588 -1.27041,-1.23206 -1.33793,-1.41504 -1.84104,-2.60467 -3.38812,-4.74438 -3.18501,-4.20236 -2.95738,-3.83027 -2.6396,-3.59197 -3.35297,-4.201 -3.76015,-4.56705 -5.608787,-6.91686 -3.616964,-4.08213 -1.2808,-1.17951 -1.158571,-0.89323 -0.977839,-0.55397 -0.934992,-0.38418 -0.933431,-0.24645 -1.032607,-0.14387 -1.233694,-0.0312 -1.195634,0.13624 -1.431402,0.28086 -1.491442,0.49516 -2.425202,0.80621 -2.138815,0.88526 -3.176511,1.26186 -6.015981,2.91933 z"
       id="path2368"
       sodipodi:nodetypes="cccccccccccccccccccccccccccccccccccccccccccccccccccccccccccccccccccccccccccccccccccccccccccccccccccccccccccccccccccccccccccccccccccccccccccccccccccccccccccccccccccccccccccccccccccccccccccccccccccccccccccccccccccccccccccccccccccccccccccccccccccccccccccccccccccccccccccccccccccccccccccccccccccccccccccccccccccccccccccccccccccccccccccccccccccccccc" />
    <path
       style="opacity:1;fill:none;stroke:#ffffff;stroke-width:1.05833;stroke-linecap:round;stroke-linejoin:round;stroke-miterlimit:4;stroke-dasharray:none;stroke-opacity:1"
       d="m 57.00079,147.29773 -28.162487,15.65942 -1.601655,1.00539 -0.919071,0.66045 -0.793407,0.7163 -0.703843,0.85805 -0.737143,1.00846 -0.634477,1.01478 -0.376234,1.21268 -0.201549,1.34066 -0.02577,1.50908 0.110036,1.43628 0.208127,1.29808 0.343854,1.22533 0.659495,1.11632 0.727012,1.12514 0.779988,0.90019 0.854247,1.03525 1.06014,0.98967 1.240716,1.09216 3.19761,2.21806 9.238457,6.81302 7.223892,5.26384 8.505923,6.31575 27.490406,20.48844 16.154913,12.06616 13.88494,10.44602 6.67924,5.00878 7.2876,5.70871 2.52299,2.04506 3.16194,2.58882 5.25069,4.14464 7.26405,5.86947 5.54516,4.84799 12.3122,9.47493 9.62021,6.98155 6.90562,2.76458"
       id="path2390"
       sodipodi:nodetypes="ccccccccccccccccccccccccccccccccccccc" />
    <path
       style="fill:none;stroke:#ffffff;stroke-width:1.05833;stroke-linecap:butt;stroke-linejoin:miter;stroke-miterlimit:4;stroke-dasharray:none;stroke-opacity:1"
       d="M 49.229564,186.93801 35.117991,205.40202"
       id="path42271" />
  </g>
</svg>
