<?xml version="1.0" encoding="UTF-8" standalone="no"?>
<svg
   xmlns:dc="http://purl.org/dc/elements/1.1/"
   xmlns:cc="http://creativecommons.org/ns#"
   xmlns:rdf="http://www.w3.org/1999/02/22-rdf-syntax-ns#"
   xmlns:svg="http://www.w3.org/2000/svg"
   xmlns="http://www.w3.org/2000/svg"
   xmlns:sodipodi="http://sodipodi.sourceforge.net/DTD/sodipodi-0.dtd"
   xmlns:inkscape="http://www.inkscape.org/namespaces/inkscape"
   width="1360"
   height="880"
   viewBox="0 0 359.83333 232.83334"
   version="1.1"
   id="svg8"
   inkscape:version="1.0.2 (e86c870879, 2021-01-15)"
   sodipodi:docname="17.svg">
  <defs
     id="defs2" />
  <sodipodi:namedview
     id="base"
     pagecolor="#616161"
     bordercolor="#666666"
     borderopacity="1.0"
     inkscape:pageopacity="0"
     inkscape:pageshadow="2"
     inkscape:zoom="2.8"
     inkscape:cx="989.7281"
     inkscape:cy="742.76731"
     inkscape:document-units="px"
     inkscape:current-layer="layer1"
     inkscape:document-rotation="0"
     showgrid="false"
     units="px"
     inkscape:snap-global="false"
     inkscape:window-width="1920"
     inkscape:window-height="1011"
     inkscape:window-x="0"
     inkscape:window-y="32"
     inkscape:window-maximized="1" />
  <metadata
     id="metadata5">
    <rdf:RDF>
      <cc:Work
         rdf:about="">
        <dc:format>image/svg+xml</dc:format>
        <dc:type
           rdf:resource="http://purl.org/dc/dcmitype/StillImage" />
        <dc:title />
      </cc:Work>
    </rdf:RDF>
  </metadata>
  <g
     inkscape:label="Ebene 1"
     inkscape:groupmode="layer"
     id="layer1">
    <path
       style="opacity:1;fill:none;stroke:#ffffff;stroke-width:1.05833;stroke-linecap:round;stroke-linejoin:round;stroke-miterlimit:4;stroke-dasharray:none;stroke-opacity:1"
       d="m 337.22824,120.5174 0.0246,4.43561 0.87328,17.09554 -0.0392,4.28873 -0.18384,2.46627 -0.34925,2.29156 -0.45834,1.98496 -1.37887,2.55042 -1.83011,2.4992 -2.20938,2.45302 -1.97423,1.91969 -2.92154,2.05666 -5.51194,3.21349 -4.70969,2.19965 -3.68697,1.60203 -3.12782,1.1607 -104.13108,30.08842 -13.68033,4.20113 -26.42957,8.04505 -2.90021,0.68374 -1.90518,0.15473 -1.6114,-0.0789 -1.43046,-0.21751 -1.61786,-0.60334 -1.46728,-0.97021 -2.00251,-2.32895 -2.4894,-2.99046 -4.21993,-4.84585 -3.47912,-4.20034 -3.29797,-3.88408 -6.01364,-7.39687"
       id="path216"
       sodipodi:nodetypes="ccccccccccccccccccccccccccccccc" />
    <path
       style="opacity:1;fill:none;stroke:#ffffff;stroke-width:3.175;stroke-linecap:round;stroke-linejoin:round;stroke-miterlimit:4;stroke-dasharray:none;stroke-opacity:1"
       d="m 158.86498,219.47324 -1.26795,0.64193 -0.17946,0.0711 -0.22547,0.0267 -0.31046,0.0735 -0.43552,0.0305 -0.27966,0.0276 -0.46756,0.008 -0.24887,-0.018 -0.50165,-0.1264 -0.13681,-0.0654 -0.15854,-0.0197 -0.15975,-0.0875 -0.22752,-0.0862 -0.22876,-0.15398 -0.18316,-0.13221 -0.22877,-0.15399 -0.18359,-0.15481 -0.47611,-0.45901 -0.13886,-0.17821 -0.0932,-0.15647 -0.0928,-0.13387 -0.0932,-0.15645 -0.0928,-0.13388 -0.16322,-0.27719 -0.97701,-2.16706 -2.25714,-4.07307 -1.12583,-2.17739 -1.50246,-2.00717 -1.5151,-2.18958 -1.57662,-1.9579 -2.46934,-3.29829 -8.1129,-10.7652 -15.22997,-20.39638 -5.38319,-7.28804 -4.69205,-7.10764 -4.90077,-7.72348 -4.588509,-7.91231 -4.718168,-8.64476 -4.473099,-9.17179 L 73.786433,89.126355 70.628454,83.885702 69.398561,81.834782 67.775,79.297238 66.50712,77.39131 63.154261,72.535317 59.239515,67.438522 54.854781,62.409178 43.173705,50.794947 30.526627,38.644395 18.098164,26.739162 l -2.714857,-2.587255 -1.545951,-1.540274 -0.681734,-0.71976 -0.554294,-0.642486 -0.343043,-0.752394 -0.110053,-0.723287 0.122494,-0.718265 0.215053,-0.595457 0.425869,-0.399319 0.592591,-0.468903 0.765651,-0.289737 0.941869,-0.250989 1.300824,-0.34105 2.29452,-0.388376 10.782247,-1.803683 8.49158,-0.897325 6.545031,-0.288259 7.458114,-0.426934 4.652785,0.03792 5.507673,0.06463 6.030303,0.329389 6.279632,0.471175 6.171352,0.627737 8.67703,1.2396 7.880449,1.374721 17.315131,3.026402 33.53613,5.706577 9.11903,1.289781 6.59342,0.513492 5.71943,0.386033 27.58262,0.786895 17.11302,0.357123 2.5982,0.06279 1.87079,0.121718 1.18187,0.221929 0.87963,0.347224 1.0394,0.610283 0.85583,0.640015 0.66318,0.615098 0.60286,0.822743 0.69098,1.146375 0.45647,1.12046 0.20005,1.204204 0.13097,1.282484 -0.0946,1.274851 -0.30931,1.204482 -0.78772,1.704958 -0.71091,1.172142 -1.02053,1.650234 -1.62492,2.373968 -1.43853,2.153256 -2.32587,2.937626 -2.81792,3.227988 -1.8657,1.748283 -2.38888,2.040246 -3.27232,2.46412 -3.68472,2.290589 -4.25447,2.178968 -2.00454,0.842847 -1.82438,0.686323 -1.97913,0.752414 -3.4867,1.020073 -2.84845,0.684833 -3.29806,0.546169 -3.34652,0.323476 -3.66117,0.0613 -3.14305,-0.08966 -4.59966,-0.557298 -13.88605,-2.046445 -15.3443,-2.258142 -6.06149,-0.859368 -2.91494,-0.37943 -2.36148,-0.0747 -1.82386,-0.05607 -1.79893,0.04709 -1.98971,0.171923 -1.82777,0.501108 -2.753,0.985724 -1.47935,0.774916 -2.43155,1.537938 -2.43146,2.327988 -1.56617,1.889855 -1.18476,1.68975 -1.1161,1.98161 -0.65538,1.60038 -0.70839,2.161695 -0.45613,1.810699 -0.27524,2.275215 -0.0174,2.16979 0.14233,2.00603 0.39238,2.214134 0.76995,2.157254 0.83457,1.917692 9.90289,17.033266 9.06662,15.01127 2.27634,3.59134 1.62559,2.01946 2.31721,2.19668 3.04871,1.93151 3.24895,1.30742 3.5778,0.83552 3.47066,0.1913 3.86661,-0.48972 3.44698,-1.08747 2.25639,-1.25674 1.75264,-1.17572 1.89566,-1.61141 1.19414,-1.04987 1.18588,-1.42037 1.67943,-2.31126 1.2098,-1.85068 1.44387,-1.74159 1.35426,-1.58198 1.73775,-1.9328 1.55264,-1.69276 2.17157,-2.01977 2.77885,-2.10249 2.63828,-1.7893 2.47628,-1.41233 3.51175,-1.65027 2.86791,-1.26217 2.34121,-0.83528 2.84082,-0.81538 4.21942,-0.89143 4.01782,-0.50016 4.53951,-0.32314 17.92416,-0.44733 15.741,-0.64658 10.13317,-0.52721 24.71298,-1.01879 42.26022,-1.79023 3.91069,0.13836 0.52895,0.0129 1.31347,0.2878 0.34498,0.0841 0.87699,0.26416 0.93853,0.29466 0.40762,0.17331 1.35191,0.65991 0.31459,0.15241 1.29043,0.75594 1.10061,0.63287 0.37725,0.24165 1.07811,1.00835 1.2046,1.13031 0.7935,0.76503 1.23522,1.70981 0.46419,0.76989 0.32632,0.60399 0.45655,1.01316 0.38505,1.0515 0.5613,1.47493 0.6457,2.10987 2.60211,8.04053 2.66799,8.26423 4.12416,12.85819 1.34615,4.3141 0.3983,1.39358 0.19889,0.99279 -0.003,1.05749 -0.0693,1.1536 -0.29466,0.93854 -0.47871,1.00518 -0.87241,0.83669 -1.066,1.00715 -1.46707,1.14161 -2.77871,2.33856 -2.79967,1.85647 -4.06481,2.4718 -3.32976,1.80515 -3.51042,1.59052 -3.43231,1.56764 -3.3119,1.30997 -2.4471,0.78895 z"
       id="path254"
       sodipodi:nodetypes="cccccccccccccccccccccccccccccccccccccccccccccccccccccccccccccccccccccccccccccccccccccccccccccccccccccccccccccccccccccccccccccccccccccccccccccccccccccccccccccccccccccccccccccccccccccccccccccccccccccccccccccccccccccccccccccccccc" />
    <path
       style="fill:none;stroke:#ffffff;stroke-width:1.05833;stroke-linecap:butt;stroke-linejoin:miter;stroke-miterlimit:4;stroke-dasharray:none;stroke-opacity:1"
       d="m 267.4271,174.01485 6.70228,24.69263"
       id="path846"
       sodipodi:nodetypes="cc" />
  </g>
</svg>
