<?xml version="1.0" encoding="UTF-8" standalone="no"?>
<svg
   width="1460"
   height="710"
   viewBox="0 0 386.29166 187.85417"
   version="1.1"
   id="svg8"
   inkscape:version="1.1 (c68e22c387, 2021-05-23)"
   sodipodi:docname="4.svg"
   xmlns:inkscape="http://www.inkscape.org/namespaces/inkscape"
   xmlns:sodipodi="http://sodipodi.sourceforge.net/DTD/sodipodi-0.dtd"
   xmlns="http://www.w3.org/2000/svg"
   xmlns:svg="http://www.w3.org/2000/svg"
   xmlns:rdf="http://www.w3.org/1999/02/22-rdf-syntax-ns#"
   xmlns:cc="http://creativecommons.org/ns#"
   xmlns:dc="http://purl.org/dc/elements/1.1/">
  <defs
     id="defs2" />
  <sodipodi:namedview
     id="base"
     pagecolor="#7c7c7c"
     bordercolor="#666666"
     borderopacity="1.0"
     inkscape:pageopacity="0"
     inkscape:pageshadow="2"
     inkscape:zoom="0.49497475"
     inkscape:cx="878.83271"
     inkscape:cy="68.690373"
     inkscape:document-units="px"
     inkscape:current-layer="layer1"
     inkscape:document-rotation="0"
     showgrid="false"
     units="px"
     inkscape:snap-global="false"
     inkscape:window-width="1920"
     inkscape:window-height="1011"
     inkscape:window-x="0"
     inkscape:window-y="32"
     inkscape:window-maximized="1"
     inkscape:pagecheckerboard="0" />
  <metadata
     id="metadata5">
    <rdf:RDF>
      <cc:Work
         rdf:about="">
        <dc:format>image/svg+xml</dc:format>
        <dc:type
           rdf:resource="http://purl.org/dc/dcmitype/StillImage" />
        <dc:title />
      </cc:Work>
    </rdf:RDF>
  </metadata>
  <g
     inkscape:label="Ebene 1"
     inkscape:groupmode="layer"
     id="layer1">
    <path
       d="m 371.45544,108.64443 -1.49593,8.37649 -1.21551,6.09172 -1.17658,4.34793 -1.42948,3.14184 -1.75761,2.79435 -1.8309,2.2257 -1.77684,1.63513 -1.94632,1.24425 -2.25449,1.22142 -2.11436,0.98535 -2.83043,0.77299 -2.60801,0.5986 -1.93782,0.14995 -2.77326,0.11911 -4.81007,-8.1e-4 -128.44729,0.25575 -6.65267,0.10108 -6.45411,0.29052 -5.15964,0.0189 -6.79365,0.2187 -10.08848,0.47516 -11.67263,0.65928 -11.09498,0.50041 -17.07527,0.6432 -14.55298,0.95244"
       style="opacity:1;fill:none;stroke:#ffffff;stroke-width:1.05833333;stroke-linecap:round;stroke-linejoin:round;stroke-miterlimit:4;stroke-dasharray:none;stroke-opacity:1"
       id="path2144"
       sodipodi:nodetypes="cccccccccccccccccccccccccc" />
    <path
       d="m 289.62864,146.39045 -37.7483,0.43264 -28.6704,-0.19835 -18.95315,0.0192 -56.26319,0.27446 -26.84185,-0.15134 -24.72931,0.26884 -7.923339,0.07 -6.809667,0.20148 -9.634951,-0.13274 -2.922498,-0.36128 -2.38943,-0.95936 -1.901769,-1.27427 -1.720402,-1.50968 -1.361487,-2.17734 -0.853202,-2.64938 -0.241332,-2.78657 0.12222,-4.7581 -0.09826,-3.22511 -0.453992,-2.34202 -1.024619,-2.57667 -1.46998,-2.40898 -1.927076,-2.22619 -2.016861,-1.69037 -2.568456,-1.41455 -16.411636,-6.47902 -2.694937,-1.00421 -3.182698,-1.30903 -2.399182,-1.35526 -2.808694,-2.09044 -2.294226,-1.97735 -2.603418,-2.992693 -1.663587,-2.372081 -1.440887,-2.89743 -1.380215,-3.323951 -0.903263,-3.182726 -0.684146,-5.369454 0.322338,-4.589765 0.840628,-3.851363 1.183476,-3.22405 1.667753,-3.495837 3.035188,-4.728721 3.732656,-4.227783 3.440088,-2.94418 2.704272,-1.925359 4.615664,-2.744764 4.689857,-2.187873 3.909557,-1.4154 4.13425,-1.227823 4.459329,-1.156944 4.759954,-0.850747 4.853674,-0.355826 17.038821,0.06908 44.678445,-0.199877 3.19884,0.327628 2.63298,0.814779 2.35975,1.258232 2.4534,2.267594 1.43338,1.77509 1.35113,2.458306 0.81988,2.704542 0.20807,2.74614 -0.14506,2.535538 -0.43169,2.586401 -0.96274,2.887777 -1.54519,3.099804 -1.9252,2.542244 -2.08338,2.228441 -2.67402,2.343807 -2.88389,1.919295 -3.1174,1.482884 -4.1435,1.347524 -3.77024,0.716391 -6.35464,0.351443 -10.644638,-0.0038 -32.425635,0.03294 -2.438741,0.156672 -2.35902,0.896778 -2.265025,1.375743 -1.532332,1.729016 -0.890806,1.652587 -0.569544,1.90901 -0.10659,2.297879 0.509291,2.487838 1.027598,1.816671 1.479487,1.910088 2.249602,1.806596 30.808619,19.979969 4.963348,2.53111 5.669546,2.25833 8.80223,2.2527 5.39164,0.69534 6.27035,0.0557 18.75748,0.21222 3.04322,-0.36835 2.36287,-0.40965 1.86451,-0.906 1.74116,-1.27975 1.11969,-1.08357 1.06453,-1.5779 0.96148,-2.44507 0.40993,-2.85376 0.006,-3.25509 0.29739,-8.70682 1.04374,-3.284342 1.48105,-3.191202 1.68576,-2.637987 13.22423,-19.087881 11.99366,-17.714061 2.17641,-2.680785 3.08518,-3.031359 3.56234,-2.284531 3.43409,-1.388109 3.86751,-1.00483 3.80192,-0.245312 3.50118,0.430638 3.51375,0.84086 4.3765,1.59392 4.87163,2.827053 21.80625,13.022162 26.98709,15.902066 12.43846,7.386743 13.23972,7.897999 23.03548,13.232248 9.00104,5.11533 3.55346,1.24776 3.47787,-0.71815 2.09131,-2.49897 -0.0667,-3.34484 -1.25732,-3.12956 -2.38872,-6.452902 -3.99678,-11.4137 -0.96424,-2.495047 -0.67122,-1.466871 -0.48631,-0.90963 -0.49399,-0.714215 -0.50825,-0.609223 -0.4096,-0.386059 -0.49102,-0.419836 -0.67742,-0.454959 -4.06406,-1.749444 -3.88403,-0.96079 -4.86371,-2.216876 -3.1,-2.627153 -2.05068,-2.613381 -0.93164,-2.011221 -0.45942,-1.183526 -0.6166,-2.449108 -0.0288,-2.989808 0.31608,-2.925821 1.24816,-3.182327 2.23891,-3.189665 2.52493,-2.263204 2.09269,-1.309384 2.35306,-0.96342 2.7764,-0.614028 2.81271,-0.01971 3.30103,0.766808 19.65705,6.52375 16.99138,5.643125 2.32685,1.416144 1.25943,1.786551 0.56859,1.99727 -0.0546,2.389144 -1.81241,24.771802 -0.0644,2.402312 0.13116,1.151239 0.33016,1.117907 0.86568,0.684357 1.4472,0.638639 1.66624,0.412818 4.01865,0.572084 1.43608,0.63978 0.68326,0.67127 0.55571,0.68938 0.24778,0.74509 0.18753,0.85468 0.0996,0.97933 -0.0107,8.59391 -0.2785,10.21443 -0.29401,4.09088 -0.52421,2.32386 -0.78382,2.09993 -1.06436,2.20204 -1.21286,1.88091 -1.26802,1.57805 -1.75063,1.98968 -2.26183,1.88718 -2.10567,1.46767 -2.22966,1.16122 -2.15615,0.81399 -2.3518,0.7264 -2.23036,0.53818 -2.56434,0.30755 -3.52747,0.1047 z"
       style="opacity:1;fill:none;stroke:#fffefe;stroke-width:3.175;stroke-linecap:round;stroke-linejoin:round;stroke-miterlimit:4;stroke-dasharray:none;stroke-opacity:1"
       id="path2164"
       sodipodi:nodetypes="cccccccccccccccccccccccccccccccccccccccccccccccccccccccccccccccccccccccccccccccccccccccccccccccccccccccccccccccccccccccccccccccccccccccccccccccccccccccccccccccccccccccccccccccccccccccccccccccccccc" />
    <path
       style="fill:none;stroke:#ffffff;stroke-width:1.05833333;stroke-linecap:butt;stroke-linejoin:miter;stroke-miterlimit:4;stroke-dasharray:none;stroke-opacity:1"
       d="m 286.27917,134.82265 v 21.27147"
       id="path4489"
       sodipodi:nodetypes="cc" />
  </g>
</svg>
