<?xml version="1.0" encoding="UTF-8" standalone="no"?>
<svg
   xmlns:dc="http://purl.org/dc/elements/1.1/"
   xmlns:cc="http://creativecommons.org/ns#"
   xmlns:rdf="http://www.w3.org/1999/02/22-rdf-syntax-ns#"
   xmlns:svg="http://www.w3.org/2000/svg"
   xmlns="http://www.w3.org/2000/svg"
   xmlns:sodipodi="http://sodipodi.sourceforge.net/DTD/sodipodi-0.dtd"
   xmlns:inkscape="http://www.inkscape.org/namespaces/inkscape"
   width="1830"
   height="1110"
   viewBox="0 0 484.18749 293.68751"
   version="1.1"
   id="svg8"
   inkscape:version="1.0.2 (e86c870879, 2021-01-15)"
   sodipodi:docname="7.svg">
  <defs
     id="defs2" />
  <sodipodi:namedview
     id="base"
     pagecolor="#6f6f6f"
     bordercolor="#666666"
     borderopacity="1.0"
     inkscape:pageopacity="0"
     inkscape:pageshadow="2"
     inkscape:zoom="0.49497475"
     inkscape:cx="749.41936"
     inkscape:cy="474.53913"
     inkscape:document-units="px"
     inkscape:current-layer="layer1"
     inkscape:document-rotation="0"
     showgrid="false"
     units="px"
     inkscape:snap-global="false"
     inkscape:window-width="1920"
     inkscape:window-height="1011"
     inkscape:window-x="0"
     inkscape:window-y="32"
     inkscape:window-maximized="1" />
  <metadata
     id="metadata5">
    <rdf:RDF>
      <cc:Work
         rdf:about="">
        <dc:format>image/svg+xml</dc:format>
        <dc:type
           rdf:resource="http://purl.org/dc/dcmitype/StillImage" />
        <dc:title></dc:title>
      </cc:Work>
    </rdf:RDF>
  </metadata>
  <g
     inkscape:label="Ebene 1"
     inkscape:groupmode="layer"
     id="layer1">
    <path
       style="opacity:1;fill:none;stroke:#ffffff;stroke-width:3.175;stroke-linecap:round;stroke-linejoin:round;stroke-miterlimit:4;stroke-dasharray:none;stroke-opacity:1"
       d="m 90.479723,40.595586 -0.687184,-1.235699 -0.255121,-1.245391 -0.05162,-1.38262 0.280091,-1.217861 0.328138,-1.117126 0.37444,-1.057138 0.641848,-0.995038 0.987831,-1.286871 1.761885,-1.869412 2.450466,-2.39924 2.793241,-2.430928 1.704752,-1.447811 1.81387,-1.327246 1.60492,-1.098612 2.56421,-1.41566 2.95487,-1.609358 2.91387,-1.355959 2.86709,-0.998527 4.13213,-1.04654 2.62492,-0.55073 1.58603,-0.345332 1.30219,-0.07245 1.52438,-0.105023 2.12005,0.32347 1.77831,0.638381 1.43182,0.8994 1.27671,0.945688 1.54652,1.105154 2.09234,1.426205 1.90114,1.503793 2.21954,1.546035 77.66661,56.007573 12.43693,8.953102 3.27645,2.38395 2.33654,1.7941 0.98663,0.811731 0.55913,0.534077 0.48234,0.55332 0.47134,0.700907 0.47086,0.652939 0.41472,0.90571 0.44215,0.87708 0.29995,0.76997 0.30775,1.04748 0.30853,1.07529 0.38175,1.237149 0.25695,1.176809 0.11239,1.32215 0.18241,1.46812 0.11493,1.21969 0.07,1.77685 0.009,2.52908 -0.0408,1.41872 -0.12141,1.42098 -0.32918,3.1501 -0.44683,3.69207 -0.40608,3.96092 -1.47388,10.534 -0.3586,3.85694 -0.11072,2.00103 0.0378,1.71191 0.0788,2.21134 0.15072,2.45109 0.38732,1.98628 0.36132,2.04116 0.6308,2.00432 0.55356,1.84874 0.52546,1.43204 0.72105,1.632 0.88656,1.92333 1.08073,1.92476 1.1547,1.89042 1.42172,1.96932 29.88893,35.4447 2.32158,3.30185 0.41418,0.99799 0.2908,0.61889 0.14274,0.77417 0.14502,0.8576 0.042,0.77719 -0.0423,0.66815 -0.18207,0.69999 -0.30993,0.81471 -0.31382,0.67585 -0.42548,0.65113 -0.45447,0.62431 -0.51167,0.5981 -0.9825,0.63914 -1.1703,0.61885 -2.93182,1.16957 -20.53959,7.08758 -0.55085,0.2091 -0.43716,0.23475 -0.41016,0.26162 -0.40941,0.28945 -0.54378,0.46002 -0.54144,0.54323 -0.45603,0.56872 -0.37105,0.64961 -0.34285,0.64883 -0.28842,0.64729 -0.13867,0.80989 -0.10225,0.66989 0.0372,0.61051 0.14192,0.74656 0.23884,0.60485 0.22291,0.80766 0.50543,0.74633 0.72488,0.71491 0.78134,0.66634 1.12522,0.69856 1.67907,0.82772 0.96004,0.50109 1.21844,0.64011 1.26439,0.49257 1.74066,0.646 1.51664,0.56897 2.2746,0.82567 2.77522,0.83945 2.49218,0.65274 2.79836,0.672 2.96897,0.53921 2.76603,0.50606 2.97979,0.46068 3.2471,0.26242 3.11863,0.19041 2.05906,0.0814 1.80661,-0.0226 2.08475,-0.001 1.52459,-0.15364 1.54969,-0.26578 1.37851,-0.39994 1.41015,-0.78974 1.10941,-0.91268 1.02956,-0.89196 0.84438,-0.92085 1.95721,-2.29722 4.20994,-5.15062 5.47198,-6.17836 4.55763,-5.32047 4.35776,-5.10446 31.733,-36.96694 15.6948,-18.08161 8.58198,-10.06007 4.30981,-4.98509 13.39033,-15.52119 14.09036,-16.45958 1.60749,-2.32126 0.74367,-1.2438 0.49919,-1.04249 0.49375,-1.23679 0.49217,-1.29241 0.32646,-1.23208 0.24923,-1.03549 0.1766,-0.89447 0.10226,-0.66989 0.10432,-1.337123 -0.038,-1.36082 -0.0173,-1.33377 -0.15837,-1.32984 -0.23898,-1.32756 -0.28656,-1.29839 -0.41779,-1.267657 -0.50748,-1.264341 -0.43513,-0.861623 -0.47433,-0.891593 -0.66775,-1.009748 -0.28984,-0.408779 -0.45943,-0.487329 -0.37246,-0.406461 -0.79824,-0.700294 -0.45477,-0.320855 -0.54052,-0.429575 -0.53818,-0.346147 -0.64903,-0.343035 -0.73087,-0.3129 -0.9264,-0.307598 -0.97843,-0.22265 -0.94917,-0.112512 -16.46944,-1.221735 -2.34852,-0.222904 -1.72811,-0.565689 -1.26914,-0.482847 -0.93938,-0.528268 -0.75172,-0.419682 -1.01994,-0.694058 -0.82644,-0.699511 -0.77314,-0.812138 -0.9192,-1.058131 -0.57731,-0.734337 -0.46212,-0.654068 -0.47782,-1.138658 -0.4099,-0.950828 -0.32878,-1.052393 -0.24843,-0.816303 -0.1728,-0.985766 -0.16138,-0.836821 -0.0902,-1.053797 0.034,-0.94593 0.0929,-1.030995 0.13706,-0.865523 0.23269,-0.957542 0.17957,-1.161787 0.25322,-0.952343 0.51428,-1.11598 0.61245,-1.045905 0.41437,-0.799845 0.59194,-0.68366 0.53437,-0.63578 0.60365,-0.562811 1.23812,-1.249139 0.4356,-0.290179 0.81912,-0.495583 0.84811,-0.468562 0.76939,-0.32738 0.68629,-0.269371 0.63266,-0.240045 0.57778,-0.183628 0.57856,-0.155407 0.66319,-0.157782 0.84414,-0.02215 0.75984,-0.01112 0.85213,-0.0015 0.89309,0.170548 0.69692,0.03689 0.92092,0.113319 0.97847,0.222649 1.03489,0.221059 1.32083,0.490972 1.07089,0.498003 8.08647,3.710023 10.41742,4.763602 8.13963,3.80398 4.87361,2.221225 0.87307,0.420237 0.98548,0.472562 0.84795,0.532091 0.84782,0.476473 1.57493,1.017862 1.20114,0.859968 1.22395,0.924135 1.36388,1.049923 1.76408,1.479187 1.79386,1.534024 1.5659,1.317935 1.3704,1.323445 2.68036,2.484926 3.1428,3.640357 1.51412,1.787672 1.26797,1.616992 0.92373,1.21213 1.67426,2.549514 1.25809,2.318374 1.05815,1.97793 0.71689,1.649214 0.73178,2.01447 0.87922,2.54323 0.55987,2.53261 0.17671,2.49008 0.41392,2.45104 0.27433,2.75237 0.23409,2.59442 0.46913,3.02168 1.51596,11.58191 4.24745,34.87541 5.00053,43.20276 0.44259,8.521 0.0995,1.38694 0.013,1.19491 -0.0851,1.28099 -0.18742,1.22818 -0.47192,2.01456 -0.59368,1.62888 -0.62267,1.60184 -0.86556,1.85879 -1.22012,2.09112 -1.84885,2.47009 -1.48246,1.65383 -1.56382,1.35807 -1.19406,1.00632 -1.2262,0.86826 -1.25597,0.81364 -1.47842,0.79203 -3.51606,1.48846 -3.65725,1.40908 -2.91432,1.13814 -2.329,0.89108 -4.59954,1.4632 -10.46162,3.11978 -7.39728,1.91494 -5.0835,1.15398 -5.50678,1.1906 -5.86351,1.04141 -3.94312,0.65504 -3.93757,0.5405 -4.65793,0.70456 -5.25409,0.43135 -7.15244,0.67337 -8.22945,0.60686 -11.73874,0.98216 -10.71955,0.63884 -4.78365,0.33959 -3.0235,0.22409 -1.74472,0.21638 -1.68874,0.26968 -1.74005,0.38248 -2.01507,0.5013 -2.20388,0.70107 -1.29198,0.53652 -1.5642,0.68308 -3.56543,1.71232 -1.51508,0.80978 -1.09257,0.66989 -1.50278,0.93169 -1.39035,0.98399 -3.87286,2.63812 -1.25752,0.75802 -1.26377,0.5357 -1.40359,0.51199 -0.77255,0.2153 -0.82846,0.16243 -0.7192,0.10283 -0.91471,0.10836 -0.6933,0.0194 -0.74898,0.0491 -1.00123,-0.0284 -0.75212,-0.0609 -0.69568,-0.0627 -0.75366,-0.118 -1.03646,-0.2767 -0.73427,-0.14852 -1.39532,-0.43112 -1.48607,-0.48632 -4.93657,-1.84334 -4.07901,-1.29498 -3.16425,-1.02812 -2.37059,-0.79281 -1.83434,-0.57846 -2.26445,-0.63297 -0.81164,-0.17084 -1.20092,-0.24424 -1.64869,-0.31494 -3.31819,-0.37945 -1.58723,-0.0663 -1.6691,-0.0358 -1.41528,0.0963 -1.7729,0.21718 -1.32598,0.25972 -1.6833,0.46418 -1.48623,0.51431 -1.18144,0.45007 -1.39893,0.67848 -1.31297,0.78739 -1.24799,0.7378 -1.2774,1.06824 -5.11655,4.42234 -2.01953,1.56809 -1.2364,0.8624 -0.97108,0.59556 -0.84656,0.52397 -1.26141,0.61917 -1.5129,0.5705 -0.82534,0.27329 -1.21202,0.36763 -1.82626,0.32922 -1.13639,0.11458 -1.02788,0.0288 -1.19595,0.005 -1.16927,-0.0499 -1.8426,-0.0847 -1.22917,-0.24339 -1.3729,-0.40622 -1.23616,-0.49337 -1.21231,-0.57751 -1.86088,-0.97625 -1.01994,-0.69409 -1.19501,-0.96708 -0.80322,-1.11857 -2.0009,-1.99964 -1.4523,-1.68267 -0.97884,-1.36157 -0.94222,-1.32842 -1.04324,-1.55167 -0.74903,-1.56587 -1.13218,-1.74705 -0.94759,-1.65722 -0.90847,-1.6123 -0.87913,-1.45131 -0.78476,-0.96961 -0.90114,-1.35428 -1.11325,-1.80355 -1.0747,-1.25742 -0.97808,-1.24287 -0.86229,-0.89625 -0.83051,-0.83235 -0.95536,-0.88022 -1.07572,-0.88679 -0.8946,-0.70602 -1.04274,-0.76953 -0.76319,-0.66924 -1.18623,-0.71598 -1.23388,-0.74669 -1.57934,-0.95354 -2.03351,-1.08006 -33.82647,-16.97807 -28.40058,-14.24565 -38.735448,-19.33121 -13.600413,-6.76036 -6.655706,-3.29705 -5.777726,-2.8454 -3.145427,-1.60926 -3.253691,-1.73029 -2.635784,-1.45211 -1.93964,-1.07408 -2.279727,-1.26569 -2.809067,-1.61405 -3.703412,-2.02895 -4.515247,-2.68373 -3.096385,-1.9545 -1.970876,-1.29808 -2.024932,-1.28916 -2.753257,-1.81589 -2.536721,-1.65939 -4.216983,-2.74855 -2.402345,-1.68482 -2.123242,-1.45659 -1.29011,-1.10985 -1.095921,-0.8683 -0.867896,-0.87561 -0.780403,-0.81587 -0.728604,-0.69613 -0.524369,-0.71644 -0.462479,-0.76975 -0.533458,-0.7298 -0.637965,-0.95488 -0.616757,-1.20562 -0.679454,-1.42635 -0.477366,-1.12621 -0.397417,-1.29527 -0.366852,-1.21264 -0.324125,-1.63074 -0.152834,-1.13534 -0.111821,-1.10863 -0.04817,-0.99931 -0.0358,-1.27758 0.105145,-2.00425 0.264844,-1.54367 0.237779,-1.52486 0.331643,-1.49509 0.40802,-1.33912 0.593646,-1.305 0.819303,-1.47818 0.938428,-1.52128 0.761021,-1.00549 0.561401,-0.76628 0.706326,-0.86034 0.644506,-0.84672 0.860022,-0.80107 0.977049,-0.83344 0.814465,-0.66206 0.979376,-0.75019 1.227735,-0.81283 0.983282,-0.61132 1.709518,-1.03771 1.598768,-0.76958 1.822135,-0.70714 1.844962,-0.89776 4.540074,-2.20983 1.424027,-0.79053 1.424792,-0.76268 1.516338,-0.90933 1.587186,-1.0914 1.781183,-1.05825 1.992574,-1.35483 2.408843,-1.61748 4.957241,-3.730194 2.149809,-1.549169 2.326313,-1.826384 1.854322,-1.549012 1.329302,-1.342183 1.54345,-1.24623 1.602695,-1.46882 1.848102,-1.815586 2.130702,-2.099216 2.782789,-2.698279 6.396421,-6.649466 5.699865,-5.483004 7.909438,-6.999527 5.573653,-4.604541 2.14371,-1.969868 0.6124,-0.962161 0.33502,-0.92676 0.0874,-1.197734 -0.19241,-1.106386 -0.33598,-1.046892 -0.55689,-1.01285 -0.954746,-1.184849 -4.532503,-4.474867 -1.544554,-1.772836 z"
       id="path372"
       sodipodi:nodetypes="ccccccccccccccccccccccccccccccccccccccccccccccccccccccccccccccccccccccccccccccccccccccccccccccccccccccccccccccccccccccccccccccccccccccccccccccccccccccccccccccccccccccccccccccccccccccccccccccccccccccccccccccccccccccccccccccccccccccccccccccccccccccccccccccccccccccccccccccccccccccccccccccccccccccccccccccccccccccccccccccccccccccccccccccccccccccccccccccccccccccccccccccccccccccccccccccccccccccccccccccccccccccccccccccccccccccccccccccccccccccccccccccccccccccccccccccccccccccccccccccccccccccccccccccccccccc" />
    <path
       style="opacity:1;fill:none;stroke:#ffffff;stroke-width:1.05833;stroke-linecap:round;stroke-linejoin:round;stroke-miterlimit:4;stroke-dasharray:none;stroke-opacity:1"
       d="m 52.45468,97.079939 10.370381,-5.816131 7.970613,-5.145382 21.564409,-15.451998 1.958389,-1.479986 2.237372,-1.738799 2.668164,-2.053421 5.108312,-4.506306 9.06888,-8.728948 10.11898,-9.753358 6.75866,-6.330764 1.41725,-1.155782 0.96597,-0.620354 0.76626,-0.43843 0.43841,-0.262419 0.68472,-0.325003 0.68709,-0.241565 0.79995,-0.244731 1.05138,-0.196928 0.94213,-0.137388 0.91625,-0.05395 0.88959,0.0032 1.27444,0.115247 1.22658,0.248673 1.05345,0.37197 0.98068,0.42498 1.84623,0.872129 3.02396,1.837929 3.89299,2.556925 63.64521,42.365455 5.59707,3.684321 3.38113,2.401362 1.26542,1.193598 0.98235,0.929884 0.69524,0.684718 0.71903,0.896971 0.75428,1.146272 0.64654,1.26044 0.5937,1.3176 0.42095,1.12782 0.31165,1.18654 0.34505,1.486186 0.51429,2.565884 0.86494,6.99581 0.96909,8.08653 2.01573,16.68811 0.62058,5.68735 0.663,4.3323 0.36909,2.35745 0.99705,3.97727"
       id="path446"
       sodipodi:nodetypes="cccccccccccccccccccccccccccccccccccccccccccccccccc" />
    <path
       style="fill:none;stroke:#ffffff;stroke-width:1.05833;stroke-linecap:butt;stroke-linejoin:miter;stroke-miterlimit:4;stroke-dasharray:none;stroke-opacity:1"
       d="m 156.08404,17.811704 -16.71281,22.8394"
       id="path1063"
       sodipodi:nodetypes="cc" />
  </g>
</svg>
