<?xml version="1.0" encoding="UTF-8" standalone="no"?>
<!-- Created with Inkscape (http://www.inkscape.org/) -->

<svg
   width="2060"
   height="1350"
   viewBox="0 0 545.04165 357.18751"
   version="1.1"
   id="svg5"
   inkscape:version="1.1 (c68e22c387, 2021-05-23)"
   sodipodi:docname="10.svg"
   xmlns:inkscape="http://www.inkscape.org/namespaces/inkscape"
   xmlns:sodipodi="http://sodipodi.sourceforge.net/DTD/sodipodi-0.dtd"
   xmlns="http://www.w3.org/2000/svg"
   xmlns:svg="http://www.w3.org/2000/svg">
  <sodipodi:namedview
     id="namedview7"
     pagecolor="#5d5d5d"
     bordercolor="#666666"
     borderopacity="1.0"
     inkscape:pageshadow="2"
     inkscape:pageopacity="0"
     inkscape:pagecheckerboard="0"
     inkscape:document-units="mm"
     showgrid="false"
     units="px"
     width="2060px"
     inkscape:snap-nodes="false"
     inkscape:zoom="0.47433592"
     inkscape:cx="765.28044"
     inkscape:cy="678.8438"
     inkscape:window-width="1920"
     inkscape:window-height="1011"
     inkscape:window-x="0"
     inkscape:window-y="32"
     inkscape:window-maximized="1"
     inkscape:current-layer="layer1" />
  <defs
     id="defs2" />
  <g
     inkscape:label="Ebene 1"
     inkscape:groupmode="layer"
     id="layer1">
    <path
       style="opacity:1;fill:none;stroke:#fffefe;stroke-width:1.05833;stroke-linecap:round;stroke-linejoin:round;stroke-miterlimit:4;stroke-dasharray:none;stroke-opacity:1"
       d="m 143.26124,253.56509 0.15749,-8.60105 0.0418,-3.18462 -0.41302,-1.53858 -0.53974,-1.22057 -0.71285,-1.19811 -0.3559,-0.48171 -0.50386,-0.49188 -1.20123,-0.66554 -1.20369,-0.45978 -1.3142,-0.18146 -0.79012,0.0152 -0.87659,0.0266 -1.30829,0.31675 -1.5285,0.56266 -1.27595,0.64735 -2.34619,1.34154 -5.53512,4.01738 -5.25081,4.0803 -4.14378,3.47338 -3.98632,3.70766 -2.92233,2.95377 -4.92756,5.2563 -2.539691,2.19197 -2.950359,2.29059 -2.940822,2.32202 -62.13598,47.31804 -1.500016,1.24442 -1.816767,1.1453 -1.426319,0.53727 -1.1866,0.12428 -1.097402,-0.092 -1.17875,-0.49239 -1.277496,-0.80209 -0.889738,-1.20452 -0.539939,-1.22054 -0.399496,-1.50297 0.04877,-1.53301 0.219282,-1.67613 0.64183,-2.81357"
       id="path270"
       sodipodi:nodetypes="cccccccccccccccccccccccccccccccccccccccc" />
    <path
       style="opacity:1;fill:none;stroke:#fffefe;stroke-width:3.175;stroke-linecap:round;stroke-linejoin:round;stroke-miterlimit:4;stroke-dasharray:none;stroke-opacity:1"
       d="m 142.07503,246.18987 -0.26462,-1.57901 -0.48109,-0.99359 -0.69572,-0.61366 -0.73081,-0.43304 -0.50284,-0.25743 -0.72975,-0.19861 -0.54526,-0.13361 -0.80158,-0.0721 -1.11739,0.20475 -1.26445,0.42812 -0.94236,0.72964 -9.28587,7.30364 -26.536598,20.2545 -25.399007,19.2114 -42.037238,31.77445 -9.98935,7.44532 -1.033671,0.50557 -1.083812,0.46343 -0.738933,0.18327 -0.90194,0.0575 -1.21009,-0.28291 -0.752235,-0.37172 -0.674341,-0.67516 -0.429729,-0.82422 -0.235651,-1.14277 -0.03028,-0.90548 0.135984,-0.98559 0.587852,-2.01297 8.226713,-21.60966 3.230507,-8.06864 2.463882,-6.58986 2.502382,-5.82721 2.545696,-5.77136 3.201554,-6.6866 2.107572,-4.40585 1.867979,-3.69628 2.080388,-3.4767 3.182772,-5.07312 5.444087,-6.85443 18.202507,-19.99921 22.48144,-24.60724 3.501756,-3.74331 5.294024,-5.73456 1.75823,-2.04708 0.76429,-0.89132 1.39618,-1.80516 2.12642,-4.08019 1.08686,-2.4783 1.35107,-2.74506 2.06884,-4.19403 1.34104,-2.57517 1.20839,-1.81249 1.2013,-1.63308 1.11185,-1.39852 1.39962,-1.3399 2.01156,-1.61856 3.05453,-2.2969 2.62698,-1.60361 6.04011,-3.00737 5.10155,-1.61341 4.24467,-0.98877 3.59857,-1.08723 2.69214,-0.79551 1.94472,-0.84111 1.89142,-0.92935 2.57351,-1.87683 2.78287,-2.19918 10.12802,-8.39996 27.61582,-22.88326 11.00511,-9.268 2.43042,-1.841 4.17827,-3.065275 5.07255,-3.181365 5.41611,-3.020665 5.05651,-2.302934 18.98696,-8.218436 63.58971,-27.307434 82.63016,-35.36207 5.62456,-2.473901 3.39303,-1.432072 5.01375,-2.003807 1.6495,-0.6248 1.36588,-0.324226 1.32704,-0.172294 1.40356,-0.03534 1.81595,0.204227 1.91865,0.542998 1.64517,0.695792 1.76643,1.17882 1.55817,1.381695 0.78329,0.837077 1.04253,1.478013 1.67016,1.958897 1.58442,1.583711 1.53571,1.208772 1.97861,1.004601 1.5649,0.53016 1.71933,0.36346 1.35058,0.235282 1.43224,-0.03908 1.27688,-0.106111 1.05251,-0.253735 1.27459,-0.353795 2.50996,-0.910347 15.20367,-6.075348 5.4599,-1.954784 2.28532,-0.473398 2.27624,-0.09118 1.29181,0.0089 1.45846,0.16273 1.28285,0.390756 1.01557,0.3669 0.8821,0.445759 0.90964,0.476181 1.10376,0.784559 0.86135,0.650236 2.56909,2.459411 3.73885,3.960471 44.96239,50.244094 3.0783,3.590307 1.13405,1.730122 0.60125,1.241943 0.57205,1.920558 0.24721,1.904024 0.0386,1.87228 -0.23948,1.996584 -0.70737,2.233281 -0.82506,1.779225 -1.14725,1.556902 -1.5085,1.486518 -1.60354,1.205484 -1.64473,0.888171 -1.6859,0.570966 -1.76607,0.40598 -1.88625,0.15757 -1.79347,-0.031 -1.80202,-0.32334 -1.59755,-0.555309 -1.56971,-0.793515 -1.44424,-0.95647 -0.9564,-0.814589 -1.3888,-1.433056 -1.677,-1.845943 -1.70189,-2.249582 -8.393,-10.644233 -5.15728,-6.282777 -2.86374,-3.529713 -1.56824,-1.772665 -1.57209,-1.262603 -1.7878,-1.117293 -1.94863,-0.773688 -1.93985,-0.481489 -1.93127,-0.189214 -1.95164,0.106533 -1.6759,0.421924 -1.86062,1.033687 -4.13733,1.902371 -12.76371,6.003625 -12.73403,6.181596 -8.15077,3.452287 -7.83898,2.950469 -9.44014,3.186854 -29.14427,9.114973 -21.15975,6.69556 -4.54098,1.47355 -3.04258,1.39341 -3.11117,1.68506 -2.26111,1.78965 -2.55373,2.47299 -2.04833,2.52473 -1.27435,2.16029 -1.24333,2.20042 -1.26327,2.9929 -0.61493,3.07377 -0.37127,2.33632 -0.004,1.99547 0.73933,14.45637 0.0906,0.92699 0.78936,5.17781 0.83829,3.294 1.27585,3.5012 2.33624,4.88894 1.88971,2.80548 2.06156,2.54849 1.84611,2.01909 1.8087,1.73063 2.52849,2.07718 2.67907,1.88158 2.91466,1.62501 3.14802,1.53123 3.96597,1.49087 21.81119,5.60672 49.60736,13.20194 5.09791,1.32862 2.31556,0.76079 2.62512,0.71692 2.52074,0.94024 3.02483,1.73678 2.27157,1.9052 1.89376,2.15956 1.43855,2.04266 1.32668,2.76126 0.88751,2.99425 0.47264,3.86949 -0.39848,3.48397 -0.70309,3.17141 -1.27002,2.5797 -1.26668,2.71667 -1.4508,3.26926 -1.13075,3.49098 -0.31209,1.88869 -0.11651,2.03912 0.16983,2.88207 0.51219,3.04298 1.24105,3.00706 1.42968,2.42518 1.60902,2.22588 1.93175,1.7734 1.92342,1.5986 2.24423,1.54 17.43552,8.0896 7.78131,3.74112 9.44497,4.42781 7.2374,3.52177 3.41806,1.4227 1.64622,0.93025 2.13087,1.95276 2.10918,2.68901 1.23623,2.74364 0.40353,2.20638 0.12965,2.3593 -0.281,2.35392 -0.87942,2.49029 -1.5992,3.08417 -10.50473,18.995 -1.66814,3.01479 -2.8961,4.74771 -2.07988,2.6991 -2.06617,2.03075 -2.55337,1.7982 -3.36485,1.87421 -3.70577,1.50782 -3.5435,0.72404 -3.08024,0.342 -3.11125,-0.10451 -3.14077,-0.49255 -15.17202,-3.63386 -5.99478,-1.61559 -3.85922,-1.3856 -4.37367,-1.86989 -2.79546,-1.42313 -5.67192,-2.97548 -5.38468,-3.02737 -5.29187,-3.61412 -13.12426,-10.31214 -6.63595,-5.35847 -5.7425,-4.91602 -5.59898,-5.84408 -3.22228,-3.80583 -3.49012,-4.73914 -9.84086,-14.27604 -10.95275,-15.89697 -5.59347,-7.67514 -2.84349,-3.82568 -2.98924,-3.36675 -2.56816,-2.83471 -3.69793,-3.48147 -4.41921,-3.80331 -5.24548,-3.62852 -3.37949,-1.90313 -3.10694,-1.56209 -2.98407,-1.51925 -3.30404,-1.27252 -7.99889,-2.65723 -22.35723,-6.80368 -10.4992,-3.18328 -2.98439,-0.79026 -3.30443,-0.59768 -2.86309,-0.36161 -2.61621,-0.0417 -2.7994,0.12888 -2.17857,0.16577 -2.57765,0.48154 -3.26889,0.80569 -3.24724,1.47164 -3.81695,2.01495 -47.72556,25.04103 -6.43706,3.06517 -6.06163,2.34182 -4.05679,1.28944 -4.26247,1.28678 -5.78136,1.3373 -10.68606,2.25447 -17.2791,3.39166 -11.40005,2.18159 -2.72946,0.35698 -1.62662,0.10345 -0.81882,0.019 -0.56683,-0.0733 -0.82392,-0.24511 -0.76723,-0.48707 -0.65023,-0.94225 -0.40193,-1.06265 -0.1798,-1.38481 -0.084,-2.45321 -0.0483,-4.0377"
       id="path272"
       sodipodi:nodetypes="ccccccccccccccccccccccccccccccccccccccccccccccccccccccccccccccccccccccccccccccccccccccccccccccccccccccccccccccccccccccccccccccccccccccccccccccccccccccccccccccccccccccccccccccccccccccccccccccccccccccccccccccccccccccccccccccccccccccccccccccccccccccccccccccccccccccccccccccccccccccccccccccccccccccccccccccccccc" />
    <path
       style="fill:none;stroke:#ffffff;stroke-width:1.05833;stroke-linecap:butt;stroke-linejoin:miter;stroke-miterlimit:4;stroke-dasharray:none;stroke-opacity:1"
       d="m 86.056962,259.83202 19.340508,24.58067"
       id="path22727" />
  </g>
</svg>
