<?xml version="1.0" encoding="UTF-8" standalone="no"?>
<svg
   xmlns:dc="http://purl.org/dc/elements/1.1/"
   xmlns:cc="http://creativecommons.org/ns#"
   xmlns:rdf="http://www.w3.org/1999/02/22-rdf-syntax-ns#"
   xmlns:svg="http://www.w3.org/2000/svg"
   xmlns="http://www.w3.org/2000/svg"
   xmlns:sodipodi="http://sodipodi.sourceforge.net/DTD/sodipodi-0.dtd"
   xmlns:inkscape="http://www.inkscape.org/namespaces/inkscape"
   width="1420"
   height="960"
   viewBox="0 0 375.70832 254.00001"
   version="1.1"
   id="svg8"
   inkscape:version="1.0.2 (e86c870879, 2021-01-15)"
   sodipodi:docname="2.svg">
  <defs
     id="defs2" />
  <sodipodi:namedview
     id="base"
     pagecolor="#5d5d5d"
     bordercolor="#666666"
     borderopacity="1.0"
     inkscape:pageopacity="0"
     inkscape:pageshadow="2"
     inkscape:zoom="0.7"
     inkscape:cx="634.38188"
     inkscape:cy="535.20647"
     inkscape:document-units="px"
     inkscape:current-layer="layer1"
     inkscape:document-rotation="0"
     showgrid="false"
     units="px"
     inkscape:snap-global="false"
     inkscape:window-width="1920"
     inkscape:window-height="1016"
     inkscape:window-x="0"
     inkscape:window-y="27"
     inkscape:window-maximized="1" />
  <metadata
     id="metadata5">
    <rdf:RDF>
      <cc:Work
         rdf:about="">
        <dc:format>image/svg+xml</dc:format>
        <dc:type
           rdf:resource="http://purl.org/dc/dcmitype/StillImage" />
        <dc:title></dc:title>
      </cc:Work>
    </rdf:RDF>
  </metadata>
  <g
     inkscape:label="Ebene 1"
     inkscape:groupmode="layer"
     id="layer1">
    <g
       id="g3001"
       transform="matrix(1.0070503,0.00322985,-0.00322985,1.0070503,0.33515093,-2.3020429)">
      <path
         d="m 101.88587,223.51172 22.37375,-1.48555 2.7703,-0.47045 1.4502,-1.772 0.58619,-2.32527 0.76976,-3.25889 0.88967,-7.14105 0.21852,-3.13147 0.081,-2.92911 0.2624,-5.16974 0.58977,-7.0573 1.32715,-21.84975 0.42516,-2.83121 0.62241,-3.81079 1.35763,-4.94041 0.89108,-2.89129 29.37326,-79.50222 2.49996,-7.338898 1.46328,-5.332281 0.47871,-2.709944 0.53969,-2.523197 0.52064,-2.57543 0.59356,-2.564214 4.90388,-17.717222"
         style="opacity:1;fill:none;stroke:#ffffff;stroke-width:1.98599;stroke-linecap:round;stroke-linejoin:round;stroke-miterlimit:4;stroke-dasharray:none;stroke-opacity:1"
         id="path2054"
         sodipodi:nodetypes="cccccccccccccccccccccccc" />
      <path
         d="m 176.08913,32.995992 1.0353,-2.622583 1.27359,-2.464653 1.10216,-1.675464 1.50732,-1.728885 1.44964,-1.500372 1.34061,-1.268602 1.72003,-1.261657 1.8348,-1.14196 2.22669,-1.309122 2.39584,-0.895736 2.30744,-0.776624 2.17948,-0.459972 2.60077,-0.184786 3.35169,-0.01717 3.00143,0.649676 3.06129,0.792903 2.48595,1.192005 2.43523,1.539382 2.29329,1.842391 1.68098,1.664205 1.5361,1.875628 1.19007,2.312512 0.86042,2.379765 0.32114,1.967592 0.0178,2.282648 -0.18124,2.340202 -0.68366,2.016033 -0.7428,2.13818 -1.31642,2.193937 -1.46525,1.917836 -1.58252,1.170877 -1.48832,0.94275 -2.09216,0.52432 -1.47801,0.01915 -1.60431,-0.279295 -1.1766,-0.406543 -1.47296,-0.804104 -1.07947,-0.844294 -1.43199,-1.672692 -1.79302,-2.869509 -0.95338,-1.436982 -0.78956,-1.015882 -1.19508,-0.985763 -1.66406,-0.903155 -1.58646,-0.450182 -2.07265,0.0105 -1.88581,0.416644 -1.70641,0.854194 -1.35639,0.990346 -0.84028,1.036539 -0.83421,1.017857 -0.41213,0.90477 -0.4236,1.018254 -0.1035,1.286103 0.13033,1.506659 0.43458,2.395896 1.17904,2.450918 1.18781,2.293427 1.1931,1.935258 1.4908,2.016692 1.69864,1.86268 2.97899,2.385959 1.5494,0.879556 2.05785,1.005719 2.31589,0.751576 1.78337,0.349112 2.93163,0.140038 5.74588,-0.552024 37.48956,-5.475278 23.84831,-3.185814 3.90238,-0.412533 2.32387,-0.234899 2.28967,0.137961 3.12364,0.29957 2.51324,0.527946 48.787,12.320132 2.92073,0.953623 1.59818,0.893864 1.74009,1.594632 0.57115,2.07209 -0.45341,2.249837 -1.21558,1.657753 -2.00798,1.420782 -2.20016,1.010681 -2.85742,1.106928 -4.10996,1.402479 -4.29872,1.068044 -2.9448,0.905752 -5.00875,0.556626 -4.5859,0.146245 -3.81995,0.222386 -4.60349,-0.315638 -9.21757,-0.578012 -31.58937,-1.811782 -2.89132,-0.109909 -2.80017,0.07021 -2.67276,0.117726 -2.7039,0.671566 -2.68696,0.817641 -2.59136,0.919589 -2.5651,1.33215 -1.95597,1.124126 -2.51501,1.803312 -1.55972,1.425901 -1.55651,1.343849 -1.35458,1.499358 -1.45996,1.730774 -1.31724,2.028849 -1.31658,1.888694 -0.85278,1.830827 -0.93157,1.996076 -0.77478,2.27369 -0.87883,2.49407 -0.52517,2.71128 -0.28431,3.41206 0.0513,3.65507 0.61256,4.08643 0.95339,4.30506 1.02786,2.43838 1.48001,2.95342 5.63068,9.21955 4.30158,6.90099 1.69625,3.15442 1.08215,2.34567 1.10253,2.82321 0.65984,2.90688 0.0146,3.03491 -0.25426,3.26003 -0.64598,2.88504 -0.782,2.01916 -0.95643,2.16688 -0.93202,1.83732 -1.91946,2.17943 -2.66559,2.58043 -3.43716,2.07973 -3.54436,1.47691 -3.2344,0.6808 -3.42366,0.2716 -3.59555,-0.2345 -7.40413,-1.12367 -7.03384,-1.10734 -3.01984,-0.18164 -1.74165,-0.006 -1.61154,0.30113 -1.40109,0.73965 -1.46746,0.94709 -1.07842,1.40793 -0.73666,1.49144 -0.34084,1.34378 -0.12766,1.32558 -0.0317,1.47572 4.92108,14.61365 0.45091,1.09269 0.58059,1.53918 0.65226,1.22849 0.72559,1.04806 0.78561,0.92777 1.47674,0.9973 2.0543,0.87898 2.16018,0.1327 4.99757,0.26964 17.8582,0.4552 20.07461,0.78085 13.04788,0.49681 21.1317,0.81682 13.34069,0.39856 24.34626,0.79613 2.04405,-0.28583 1.56852,-0.69981 0.95312,-1.07341 0.56862,-1.06607 0.21368,-1.22641 -0.17922,-1.89963 -0.58344,-2.2044 -0.60445,-1.98139 -0.51938,-1.58482 -0.47134,-1.52008 -0.41749,-1.35389 -0.0672,-1.2371 -0.10441,-0.92268 0.0888,-1.1448 0.25342,-1.32116 0.32696,-1.19439 0.77431,-1.24674 1.04879,-1.02814 1.24171,-0.90336 1.76636,-0.96041 1.64556,-0.42599 1.5007,-0.44317 1.80783,-0.20981 1.92796,-0.003 2.17839,0.0255 2.28355,0.27377 2.78864,0.74102 1.93074,0.55601 2.48382,1.26979 1.84489,1.23699 1.51211,1.04666 1.4865,1.29413 1.3978,1.53663 1.69258,2.46316 1.581,2.71312 1.07291,2.80414 0.68984,3.57066 0.0579,4.09356 -1.1111,4.41976 -1.38423,3.61233 -0.99064,2.06311 -1.22118,1.91404 -2.67868,3.55916 -3.23012,3.22747 -3.36519,2.53957 -3.6555,1.90787 -4.29944,1.74887 -3.86098,0.96682 -3.53869,0.53397 -4.84411,0.0579 -62.58491,-0.10598 -29.32769,-0.1273 -24.17161,0.0537 -11.82137,-0.045 -31.29876,-0.0421 -8.70563,0.0919 -28.09373,0.18301 -32.648494,-0.0967 -78.665761,0.0634 -4.600317,-0.13715 -1.726736,-0.61171 -1.10355,-0.85027 -0.433151,-0.72099 -0.05009,-1.19729 0.350725,-0.64358 0.424465,-0.69125 0.744833,-0.74218 0.798627,-0.73554 1.533492,-0.87156 3.346087,-1.78094 7.88112,-3.1528 2.844996,-1.02462 3.079524,-0.6118 5.061395,-0.28602 55.7574,-2.21894 7.115887,-0.18676 4.78053,-1.27615 1.66736,-2.53061 1.07436,-2.61639 13.6467,-38.3593 6.24348,-17.28764 3.35739,-9.73094 15.62567,-41.78649 13.95383,-37.577975 3.53362,-9.562426 z"
         style="opacity:1;fill:none;stroke:#ffffff;stroke-width:3.97197582;stroke-linecap:round;stroke-linejoin:round;stroke-miterlimit:4;stroke-dasharray:none;stroke-opacity:1"
         id="path2056"
         sodipodi:nodetypes="cccccccccccccccccccccccccccccccccccccccccccccccccccccccccccccccccccccccccccccccccccccccccccccccccccccccccccccccccccccccccccccccccccccccccccccccccccccccccccccccccccccccccccccccccccccccccccccccccccccccccccccccccccccccccccccccccccccccccccccccccccccccccccccc" />
    </g>
    <path
       style="fill:none;stroke:#ffffff;stroke-width:1.58669;stroke-linecap:butt;stroke-linejoin:miter;stroke-miterlimit:4;stroke-dasharray:none;stroke-opacity:1"
       d="m 120.7875,149.11404 23.83584,8.85906"
       id="path3003"
       sodipodi:nodetypes="cc" />
  </g>
</svg>
