<?xml version="1.0" encoding="UTF-8" standalone="no"?>
<svg
   xmlns:dc="http://purl.org/dc/elements/1.1/"
   xmlns:cc="http://creativecommons.org/ns#"
   xmlns:rdf="http://www.w3.org/1999/02/22-rdf-syntax-ns#"
   xmlns:svg="http://www.w3.org/2000/svg"
   xmlns="http://www.w3.org/2000/svg"
   xmlns:sodipodi="http://sodipodi.sourceforge.net/DTD/sodipodi-0.dtd"
   xmlns:inkscape="http://www.inkscape.org/namespaces/inkscape"
   width="1110"
   height="880"
   viewBox="0 0 293.68749 232.83334"
   version="1.1"
   id="svg8"
   inkscape:version="1.0.2 (e86c870879, 2021-01-15)"
   sodipodi:docname="26.svg">
  <defs
     id="defs2" />
  <sodipodi:namedview
     id="base"
     pagecolor="#828282"
     bordercolor="#666666"
     borderopacity="1.0"
     inkscape:pageopacity="0"
     inkscape:pageshadow="2"
     inkscape:zoom="0.7"
     inkscape:cx="636.16511"
     inkscape:cy="446.93642"
     inkscape:document-units="px"
     inkscape:current-layer="layer1"
     inkscape:document-rotation="0"
     showgrid="false"
     units="px"
     inkscape:snap-global="false"
     inkscape:window-width="1920"
     inkscape:window-height="1016"
     inkscape:window-x="0"
     inkscape:window-y="27"
     inkscape:window-maximized="1" />
  <metadata
     id="metadata5">
    <rdf:RDF>
      <cc:Work
         rdf:about="">
        <dc:format>image/svg+xml</dc:format>
        <dc:type
           rdf:resource="http://purl.org/dc/dcmitype/StillImage" />
        <dc:title></dc:title>
      </cc:Work>
    </rdf:RDF>
  </metadata>
  <g
     inkscape:label="Ebene 1"
     inkscape:groupmode="layer"
     id="layer1">
    <path
       d="m 127.2641,14.343898 3.06746,-2.269035 3.4424,-0.598141 3.21452,0.693778 2.53313,0.958279 1.5274,1.171608 1.37843,1.446928 1.15473,1.629518 1.04473,2.040344 0.27686,2.051157 0.0377,1.920164 -0.39952,2.538125 -0.86837,1.888811 -0.97121,1.930049 -2.40825,2.880131 -10.19789,12.924937 -4.5304,6.66417 -2.03451,2.751683 -1.21958,1.923875 -1.21196,2.089159 -1.00755,1.673971 -1.10307,2.457568 -0.80238,1.752423 -0.48569,1.651708 -0.73489,2.027608 -0.60919,1.726865 -0.4384,2.097646 -0.93694,3.459767 -1.33947,5.493597 -0.79436,2.609174 -0.68559,1.440221 -1.02808,1.484723 -1.38732,1.15115 -1.21605,1.042932 -1.39538,0.797312 -1.37466,0.666456 -1.98486,0.598717 -1.87573,0.379053 -4.252876,0.537635 -7.552066,0.768436 -3.936175,0.558202 -2.938558,0.643495 -2.940502,1.562449 -1.222066,1.594728 -0.887136,1.52184 -0.453898,1.879086 -0.09116,2.32371 0.375543,1.99206 0.870657,2.04053 1.215636,1.8329 2.085799,1.63113 3.055399,1.03495 4.557638,0.19362 11.836616,-0.67942 5.72077,-0.37368 5.65436,-0.27732 3.88525,-0.0307 4.12829,0.15982 3.23666,0.34421 3.3683,0.52114 3.17728,0.7744 2.82437,0.69002 2.93552,0.88914 3.06989,1.0466 3.12589,1.26776 3.49735,1.59912 4.001,1.89769 4.81167,2.48979 6.45654,3.30441 3.33725,1.45758 2.88913,1.17904 3.01068,1.0184 3.16582,0.62859 2.87081,0.43713 2.8917,0.20287 2.76,-0.0367 2.7129,-0.12864 2.09927,-0.19519 3.9975,-0.67084 3.48878,-0.78081 4.97191,-1.63227 3.09911,-1.10681 3.57385,-1.05724 2.10061,-0.63932 1.43341,-0.40216 1.6337,-0.37519 2.35202,-0.48609 2.15617,-0.3645 2.65021,-0.2649 3.01119,-0.0711 3.6212,0.14347 3.49073,0.31464 2.51015,0.44221 3.48103,0.88335 6.64417,2.01155 11.03097,3.46401 8.5087,2.57549 2.89102,1.09814 2.26344,0.95689 1.48256,0.77752 1.82642,1.03994 1.67424,1.17079 1.5248,1.22354 1.30808,1.14743 1.29159,1.59599 1.19953,1.41502 1.23875,1.83573 1.08881,1.80905 0.88998,1.65643 0.72716,1.94 0.55802,1.69056 0.40405,1.85471 0.35951,1.52921 0.12003,1.85604 0.055,1.93757 -0.12723,1.55088 0.0242,1.36219 -0.37874,1.77796 -0.42286,1.62528 -0.49724,1.50399 -0.58651,1.8331 -0.62242,1.34223 -0.93363,1.80635 -0.91652,1.34541 -1.24453,1.88903 -3.84066,4.25498 -6.04519,5.11643 -5.89631,5.13712 -3.88839,3.50138 -2.34463,1.94836 -2.21029,2.07202 -2.6912,2.73137 -4.62088,5.31233 -4.33217,5.66751 -4.37531,4.96536 -1.69444,1.7071 -1.1859,1.21829 -1.58852,1.12436 -1.7383,0.69423 -2.57551,0.0767 -2.26712,-0.33742 -2.6601,-0.64107 -2.77789,-0.38208 -3.69004,-1.36161 -3.14251,-1.15959 -3.90599,-1.98937 -3.20586,-1.69796 -2.38494,-1.55301 -2.54559,-1.68653 -1.94908,-1.79441 -2.14587,-1.87749 -2.24108,-2.0545 -2.09252,-2.45219 -2.1174,-2.55833 -1.94536,-2.61413 -1.86935,-3.30056 -0.85984,-2.12699 -0.21647,-1.91867 0.1004,-1.58848 0.35137,-1.49325 0.93331,-1.36352 1.20147,-1.02633 1.61571,-1.22427 1.78049,-1.03472 2.06402,-0.83491 2.94177,-0.8614 2.07394,-0.5207 2.78676,-0.26269 3.64586,0.0962 6.58265,0.46665 2.82328,0.31663 2.83803,0.1644 3.36265,0.0538 3.453,-0.075 4.19353,-0.48322 3.58399,-0.30965 3.40354,-0.84499 1.98097,-0.54659 2.48536,-1.33321 1.60936,-1.22912 1.26323,-1.65067 0.99429,-1.57047 0.6056,-1.61866 0.55562,-2.17712 0.17229,-2.63847 -0.24323,-2.30567 -0.81613,-2.07775 -0.97608,-1.77159 -1.56988,-1.85827 -2.03014,-1.63828 -2.22736,-1.36545 -2.73478,-1.05824 -2.88594,-1.08537 -8.81142,-3.17353 -3.24248,-0.99384 -3.33334,-1.02879 -4.78383,-1.36589 -2.56149,-0.58707 -2.83882,-0.61633 -4.40824,-0.91677 -7.41136,-1.34588 -6.77178,-0.8635 -9.26655,-0.96537 -5.84101,-0.35811 -5.03727,-0.1172 -6.23586,-0.16954 -5.45432,0.0954 -4.77454,0.16999 -4.83535,0.37414 -10.23536,1.17491 -8.37173,1.11609 -6.56774,1.00436 -5.67591,1.16269 -8.26728,2.18502 -1.893,0.27452 -1.39718,-0.0878 -0.95215,-0.57539 -0.9101,-0.62843 -0.67142,-0.90725 -0.31594,-1.8763 -1.190183,-4.17419 -0.981129,-2.34881 -1.154918,-0.89233 -1.262199,-0.91154 -1.550442,-1.0508 -1.895865,-0.52903 -1.734986,0.12273 -2.239878,0.0884 -1.565985,0.43983 -1.546639,0.85578 -1.336386,1.25862 -1.101902,1.01361 -1.045445,1.50411 -0.451621,1.65931 -0.331994,1.88685 -0.163445,2.23482 -4.454947,57.29276 -0.316174,2.97928 -0.381837,1.97361 -0.312961,2.41902 -0.633533,1.54783 -0.603667,1.06862 -0.709025,1.09998 -0.717078,0.97603 -0.861136,0.92715 -1.046293,0.92596 -1.043399,0.84952 -1.580048,0.87801 -1.730568,0.67697 -1.273873,0.30217 -1.488229,0.30087 -1.482595,0.0913 -1.18411,0.0665 -1.141792,-0.0609 -1.121024,-0.14359 -1.896005,-0.22968 -14.019042,-3.28864 -4.849326,-1.39154 -3.066934,-1.30248 -2.197931,-1.08695 -1.923483,-1.0602 -2.099142,-1.02721 -1.920416,-1.11373 -1.520088,-1.17886 -1.390675,-1.19629 -1.741807,-1.8332 -1.770988,-2.0968 -1.156817,-1.47717 -1.124415,-1.63917 -1.0272,-1.7708 -1.129289,-2.04874 -0.90003,-1.96856 -0.786516,-2.16227 -0.480347,-1.9105 -0.568007,-2.57295 -0.321987,-2.34001 -0.245446,-2.33759 -0.0085,-1.87274 0.07216,-1.75196 0.145324,-1.69245 0.295899,-1.99061 0.415455,-1.88483 0.530549,-1.71186 0.703317,-2.03501 0.5637,-1.49385 0.944441,-2.26052 1.048025,-2.47984 1.107394,-1.63875 1.246187,-1.9535 1.356566,-2.04135 22.329185,-29.68189 4.906452,-6.8421 76.124623,-101.70442 z"
       style="opacity:1;fill:none;stroke:#ffffff;stroke-width:3.175;stroke-linecap:round;stroke-linejoin:round;stroke-miterlimit:4;stroke-dasharray:none;stroke-opacity:1"
       id="path1467"
       sodipodi:nodetypes="cccccccccccccccccccccccccccccccccccccccccccccccccccccccccccccccccccccccccccccccccccccccccccccccccccccccccccccccccccccccccccccccccccccccccccccccccccccccccccccccccccccccccccccccccccccccccccccccccccccccccccccccccccccccccccccccccccccccccccccccccccccccccccccccccccccccccccccccccccccccccccccccccccccc" />
    <path
       d="m 39.214572,131.60375 18.287298,-18.70023 4.033859,-4.91002 6.313771,-8.753981 37.40338,-50.867439 21.83459,-29.309319 1.92992,-1.945804 2.196,-1.50329 2.30266,-0.515347 2.33383,0.120594 1.94678,0.679328 1.23346,1.141729 1.25427,1.005879 1.23795,1.715232 0.53805,2.221553 0.09,1.283312 -0.22085,1.841246 -0.4475,1.485907 -0.45693,1.469523 -0.84597,1.893124 -5.43925,7.371574 -10.592,16.09709"
       style="opacity:1;fill:none;stroke:#ffffff;stroke-width:0.79375;stroke-linecap:round;stroke-linejoin:round;stroke-miterlimit:4;stroke-dasharray:none;stroke-opacity:1"
       id="path1471"
       sodipodi:nodetypes="cccccccccccccccccccccc" />
    <path
       style="fill:none;stroke:#ffffff;stroke-width:0.79375;stroke-linecap:butt;stroke-linejoin:miter;stroke-miterlimit:4;stroke-dasharray:none;stroke-opacity:1"
       d="m 68.650506,77.175538 14.756172,10.46235"
       id="path868"
       sodipodi:nodetypes="cc" />
  </g>
</svg>
