<?xml version="1.0" encoding="UTF-8" standalone="no"?>
<svg
   xmlns:dc="http://purl.org/dc/elements/1.1/"
   xmlns:cc="http://creativecommons.org/ns#"
   xmlns:rdf="http://www.w3.org/1999/02/22-rdf-syntax-ns#"
   xmlns:svg="http://www.w3.org/2000/svg"
   xmlns="http://www.w3.org/2000/svg"
   xmlns:sodipodi="http://sodipodi.sourceforge.net/DTD/sodipodi-0.dtd"
   xmlns:inkscape="http://www.inkscape.org/namespaces/inkscape"
   width="1240"
   height="610"
   viewBox="0 0 328.08333 161.39584"
   version="1.1"
   id="svg8"
   inkscape:version="1.0.2 (e86c870879, 2021-01-15)"
   sodipodi:docname="5.svg">
  <defs
     id="defs2" />
  <sodipodi:namedview
     id="base"
     pagecolor="#818181"
     bordercolor="#666666"
     borderopacity="1.0"
     inkscape:pageopacity="0"
     inkscape:pageshadow="2"
     inkscape:zoom="0.98994949"
     inkscape:cx="568.81961"
     inkscape:cy="343.04526"
     inkscape:document-units="px"
     inkscape:current-layer="layer1"
     inkscape:document-rotation="0"
     showgrid="false"
     units="px"
     inkscape:snap-global="false"
     inkscape:window-width="1920"
     inkscape:window-height="1016"
     inkscape:window-x="0"
     inkscape:window-y="27"
     inkscape:window-maximized="1" />
  <metadata
     id="metadata5">
    <rdf:RDF>
      <cc:Work
         rdf:about="">
        <dc:format>image/svg+xml</dc:format>
        <dc:type
           rdf:resource="http://purl.org/dc/dcmitype/StillImage" />
        <dc:title></dc:title>
      </cc:Work>
    </rdf:RDF>
  </metadata>
  <g
     inkscape:label="Ebene 1"
     inkscape:groupmode="layer"
     id="layer1">
    <path
       d="m 17.469394,111.88212 0.603949,-1.88137 0.421451,-1.71692 0.416476,-1.39681 0.620148,-1.73994 1.061999,-2.21586 0.758891,-1.69082 0.595856,-1.316595 0.812,-1.3135 0.88626,-1.671981 0.780508,-1.248745 0.718612,-1.202147 0.706131,-1.16297 0.809103,-1.17061 0.776483,-1.280008 0.997178,-1.455841 0.723902,-1.139881 0.67233,-1.116932 0.940623,-1.320645 1.270888,-1.753533 1.585282,-2.258834 1.315839,-1.758634 0.958336,-1.192136 0.98524,-1.35096 1.204876,-1.51713 1.452593,-1.847732 1.649322,-2.147738 1.295376,-1.394063 0.867434,-1.043859 0.559568,-0.828742 0.574255,-0.489263 0.763225,-0.950556 0.928418,-0.99236 1.077074,-1.028161 1.393308,-1.335579 0.910267,-0.877842 0.979871,-1.0116 1.000045,-0.989613 1.279092,-1.160657 1.16765,-1.097431 1.342828,-1.226964 1.659711,-1.463973 1.774349,-1.502111 3.044115,-2.94229 3.1121,-2.659957 0.932611,-0.950225 1.555712,-1.445716 2.250335,-1.755759 1.509325,-1.012706 1.354807,-1.161273 1.849927,-1.278096 2.241043,-1.374647 2.541944,-1.58452 1.676778,-1.038538 2.275493,-1.311539 1.896561,-0.846815 1.746864,-0.849323 1.450524,-0.641563 1.450665,-0.634223 2.490376,-0.936331 2.212697,-0.919088 2.852796,-1.187615 2.983036,-1.509257 2.68295,-1.792198 1.72014,-1.116918 2.08796,-0.510138 1.62585,0.175519 1.66364,0.934877 3.08523,3.178323 3.6533,4.005849 3.23835,3.32708 3.45165,3.548519 5.2482,5.568826 1.95811,1.676457 1.92221,1.452543 4.13635,3.133903 6.63865,5.223205 2.31539,1.7186 2.02554,1.495925 2.77195,2.174079 3.25864,3.279569 2.77562,3.309962 1.85262,1.816812 1.58931,1.868451 1.33146,1.251592 2.77537,2.178849 4.64991,2.393278 2.46072,1.215861 2.4676,1.243372 3.49171,1.747465 3.33632,2.123576 4.00903,2.788095 5.63332,5.474504 5.19563,5.025974 4.0275,4.036406 2.67762,2.14022 1.79969,1.13988 1.79196,0.98207 1.44412,0.62213 1.41285,0.53072 1.39946,0.47581 1.38659,0.31331 1.33521,0.3005 1.60499,0.25838 1.39325,0.19888 1.43418,0.031 1.33706,-0.0447 1.27509,-0.16261 1.05459,-0.20314 1.42439,-0.57638 1.40498,-0.52668 1.55137,-1.19728 1.23494,-1.02037 0.90616,-0.87409 1.26934,-1.28544 0.96835,-1.28223 0.85989,-1.03499 1.0185,-1.59165 0.86075,-1.632632 0.78946,-1.566889 0.4132,-1.309675 0.38119,-1.486346 0.33852,-1.663907 0.40059,-3.879202 0.41835,-1.881823 0.11048,-1.200409 0.46853,-1.965008 0.59104,-1.166808 1.01928,-1.452152 1.06805,-0.968026 1.87695,-0.809831 2.15081,-0.506022 4.78092,-0.749675 4.75882,-0.165349 3.13926,-0.08584 1.87968,-0.01546 1.46903,0.06287 1.47203,0.01279 3.07944,-0.04366 2.56604,-0.01219 1.0025,0.009 3.22582,0.0806 1.94358,0.07848 3.03805,0.07276 4.21562,0.102339 4.35083,0.09784 4.8652,0.158722 3.27712,-0.0051 1.72626,0.04753 1.10496,0.01388 0.55654,0.118159 0.43982,0.116644 0.52645,0.18828 0.58887,0.387048 0.97251,0.882081 0.3585,1.010986 0.26549,0.871562 0.0644,1.056514 0.0561,0.905153 0.0255,0.988858 -0.16053,1.342786 -0.54897,1.113501 -0.75043,1.046532 -0.79992,0.716351 -0.99811,0.811028 -0.97036,0.762011 -0.9005,0.892737 -0.66725,0.656156 -0.85166,0.783758 -0.62771,1.008029 -0.66149,1.331837 -0.49795,1.389449 -0.43014,1.368639 -0.32552,1.085549 -0.32829,1.088493 -0.41472,1.331895 -0.38063,1.07389 -0.56986,1.05517 -0.48235,0.87947 -0.62167,0.86993 -0.3856,0.89472 -0.18444,1.06388 0.18954,0.89908 0.47571,0.85641 0.74843,0.60074 0.84491,0.23197 1.01147,0.0112 0.93725,-0.27347 0.72254,-0.66863 0.44582,-0.99315 0.16106,-0.96118 0.2312,-1.13782 0.14503,-1.19731 0.28412,-1.28758 0.30115,-1.37134 0.35888,-1.31997 0.27344,-0.967351 0.25794,-1.279237 0.29366,-0.909635 0.28404,-0.801705 0.31307,-0.912008 0.40269,-0.739356 0.47293,-0.644055 0.56254,-0.51306 0.70302,-0.556366 0.60513,-0.291053 0.66772,-0.102669 0.7361,-0.10344 0.84351,0.05833 1.03211,0.249449 2.67376,1.536071 3.97484,2.203719 3.33852,2.349505 1.898,1.500341 1.35136,1.38607 1.09419,1.3066 0.62752,1.01347 0.21243,1.2202 -0.0345,1.26081 -0.6419,1.13555 -1.32603,1.18451 -2.76211,1.7203 -4.89905,3.29418 -5.10983,3.3112 -3.04862,1.74253 -2.83574,1.61865 -2.4648,1.2734 -3.13928,1.60233 -3.3455,1.45227 -3.87286,1.61751 -3.11806,1.28265 -4.41323,1.66214 -3.6453,1.22881 -3.76039,1.15358 -3.33251,0.96127 -4.87491,1.072 -4.03911,0.86863 -4.21243,0.6546 -2.8621,0.4194 -3.95382,0.0575 -2.97186,-0.33978 -3.87074,-0.91107 -2.60625,-0.86421 -1.62269,-0.71296 -2.25961,-0.99574 -2.74632,-1.29569 -2.53083,-1.30568 -2.7102,-1.35821 -2.32329,-1.06505 -2.62414,-1.20907 -2.25341,-1.10837 -2.25835,-1.08504 -2.50679,-1.16585 -2.33097,-1.10114 -3.11143,-1.24185 -2.62272,-1.29095 -2.66213,-1.37174 -4.38287,-2.5154 -4.30347,-2.95648 -4.97154,-3.53221 -4.5098,-3.70769 -8.37252,-7.362621 -8.19637,-8.038127 -1.12563,-0.57901 -1.06304,0.239147 -1.07927,0.90476 -0.78016,0.627902 -0.92669,0.594686 -1.10095,0.106382 -2.00598,-1.470799 -1.46312,-1.528208 -0.62064,-1.204296 -0.16768,-1.748613 -0.22209,-1.30666 -0.22559,-0.928067 -0.24106,-0.685574 -0.38345,-0.675744 -0.68955,-0.665879 -0.73509,-0.826313 -1.08073,-0.987887 -0.65523,-0.861304 -0.88079,-0.879218 -1.13143,-1.168814 -1.41695,-1.466216 -1.54384,-1.764644 -1.88848,-1.956802 -2.07495,-2.123063 -2.51658,-2.740845 -2.12912,-2.134412 -2.85932,-3.043886 -3.59505,-3.668435 -1.50246,-1.660449 -1.66417,-1.818063 -1.97955,-1.959059 -1.71071,-1.778088 -2.62064,-2.905594 -2.46434,-2.515831 -0.94961,-1.009875 -1.0077,-0.992604 -0.95266,-0.840974 -0.82666,-0.746542 -1.09145,-0.569999 -0.7712,-0.340641 -0.7164,-0.184097 -0.7109,-0.259433 -0.58654,-0.112884 -0.59085,-0.02799 -0.98508,-0.05148 -1.40577,0.06657 -1.55385,0.215581 -1.9463,0.261789 -3.06764,0.587134 -2.625682,0.74989 -1.227105,0.382866 -0.93988,0.345292 -1.146202,0.442302 -0.987592,0.42824 -1.283878,0.505182 -1.375016,0.616373 -0.825022,0.371369 -0.818751,0.480157 -1.10196,0.510711 -1.035082,0.584087 -0.989108,0.52243 -0.990076,0.625074 -1.458453,1.028327 -0.895252,0.610826 -1.099056,0.769693 -1.139639,0.776265 -0.856938,0.626583 -0.609897,0.538721 -0.685482,0.553987 -0.532123,0.566176 -0.651603,0.574055 -0.472362,0.52232 -0.605655,0.742195 -0.438231,0.716206 -0.439646,0.91919 -0.687245,1.411417 -0.403773,1.924447 -0.143659,1.832816 -0.218277,2.087606 -0.310268,1.375355 -0.712539,1.633703 -0.78588,1.501147 -3.462435,4.247207 -2.049806,2.102883 -1.30292,1.484008 -1.177549,1.269011 -0.80085,0.737363 -1.390483,1.546055 -1.246633,1.458525 -1.257665,1.336647 -1.223915,1.282789 -0.983235,1.209295 -1.048109,1.128898 -0.951915,1.00955 -1.310205,1.278447 -1.192775,0.783829 -1.27645,0.442642 -1.197982,0.188588 -1.43692,-0.199327 -1.048027,-0.244816 -1.115459,-0.501627 -1.305341,-0.375348 -1.381241,0.133353 -1.480044,1.298201 -1.394781,1.38284 -1.207423,1.554129 -1.088495,1.334773 -0.621547,0.935857 -0.992741,1.310948 -0.986964,1.675644 -1.210929,1.939042 -1.717053,3.232985 -1.432429,3.02263 -0.918472,2.04795 -0.684595,2.01378 -0.48385,1.57825 -0.32233,1.52251 -0.33981,2.03574 -0.374873,3.21507 0.0539,2.45492 0.07088,2.01317 0.316468,1.6769 0.550085,1.15134 0.504394,1.14487 0.260784,1.32836 0.01073,1.16722 -0.133875,0.73853 -0.136792,0.72003 -0.361928,0.73419 -0.291901,0.68565 -0.628911,0.64998 -0.86529,0.81998 -0.723946,0.18743 -0.945944,0.12187 -0.807127,-0.30398 -0.749464,-0.20827 -0.975355,-0.70469 -1.148618,-0.81992 -1.316126,-1.1239 -1.522132,-1.16909 -1.276497,-1.26352 -1.181406,-0.99046 -1.405122,-1.61672 -1.562597,-1.40386 -1.314764,-1.6442 -1.002166,-1.43658 -0.483138,-1.6836 0.583227,-1.67047 1.245706,-1.46409 1.653552,-1.43304 1.340202,-1.56311 z"
       style="opacity:1;fill:none;stroke:#fffefe;stroke-width:2.64583337;stroke-linecap:round;stroke-linejoin:round;stroke-miterlimit:4;stroke-dasharray:none;stroke-opacity:1"
       id="path2055"
       sodipodi:nodetypes="ccccccccccccccccccccccccccccccccccccccccccccccccccccccccccccccccccccccccccccccccccccccccccccccccccccccccccccccccccccccccccccccccccccccccccccccccccccccccccccccccccccccccccccccccccccccccccccccccccccccccccccccccccccccccccccccccccccccccccccccccccccccccccccccccccccccccccccccccccccccccccccccccccccccccccccccccccccccccccccccccccccccccccccccccccccccccccccccccccccccccccccccccccccccccccccccccccccccccccccccccccccccccccccccc" />
    <path
       d="m 116.32266,33.617011 -3.64967,-2.939812 -2.92865,-1.026754 -4.15902,0.400546 -4.0923,0.919475 -4.089176,1.129267 -4.580398,1.438389 -4.319957,1.515404 -6.115103,3.033865 -8.584289,5.544887 -7.559381,5.846917 -3.52544,3.824974 -3.516208,6.196906 -2.432513,3.736153 -1.912733,4.503448 -1.765733,3.515356 -3.045628,3.772476 -3.354373,3.679601 -3.892917,4.515834 -5.629599,7.744215 -4.83418,7.212928 -4.192988,8.574524 -2.469765,7.50641 -0.898112,1.92405 -1.987873,2.55793 -2.162992,1.99324 -1.935827,2.19958 -0.70064,2.20539 1.13631,4.33356"
       style="opacity:1;fill:none;stroke:#ffffff;stroke-width:0.79375001;stroke-linecap:round;stroke-linejoin:round;stroke-miterlimit:4;stroke-dasharray:none;stroke-opacity:1"
       id="path4375"
       sodipodi:nodetypes="ccccccccccccccccccccccccccccc" />
    <path
       style="fill:none;stroke:#ffffff;stroke-width:1.05833;stroke-linecap:butt;stroke-linejoin:miter;stroke-miterlimit:4;stroke-dasharray:none;stroke-opacity:1"
       d="M 53.197751,49.231752 63.992085,59.964718"
       id="path8768"
       sodipodi:nodetypes="cc" />
  </g>
</svg>
