<?xml version="1.0" encoding="UTF-8" standalone="no"?>
<!-- Created with Inkscape (http://www.inkscape.org/) -->

<svg
   width="1080"
   height="1020"
   viewBox="0 0 285.74999 269.87501"
   version="1.1"
   id="svg50547"
   inkscape:version="1.1 (c68e22c387, 2021-05-23)"
   sodipodi:docname="9.svg"
   xmlns:inkscape="http://www.inkscape.org/namespaces/inkscape"
   xmlns:sodipodi="http://sodipodi.sourceforge.net/DTD/sodipodi-0.dtd"
   xmlns="http://www.w3.org/2000/svg"
   xmlns:svg="http://www.w3.org/2000/svg">
  <sodipodi:namedview
     id="namedview50549"
     pagecolor="#505050"
     bordercolor="#eeeeee"
     borderopacity="1"
     inkscape:pageshadow="0"
     inkscape:pageopacity="0"
     inkscape:pagecheckerboard="0"
     inkscape:document-units="px"
     showgrid="false"
     units="px"
     inkscape:snap-nodes="false"
     inkscape:zoom="0.50142283"
     inkscape:cx="952.2901"
     inkscape:cy="676.07612"
     inkscape:window-width="1920"
     inkscape:window-height="1011"
     inkscape:window-x="0"
     inkscape:window-y="32"
     inkscape:window-maximized="1"
     inkscape:current-layer="layer1" />
  <defs
     id="defs50544" />
  <g
     inkscape:label="Ebene 1"
     inkscape:groupmode="layer"
     id="layer1">
    <path
       style="opacity:1;fill:none;stroke:#ffffff;stroke-width:3.24281;stroke-linecap:round;stroke-linejoin:round;stroke-miterlimit:4;stroke-dasharray:none;stroke-opacity:1"
       d="m 16.592278,102.12331 0.417104,-29.140361 0.916832,-52.55134 0.077,-0.758227 0.143199,-0.92465 0.115058,-0.708645 0.183381,-0.569482 0.202511,-0.544668 0.263157,-0.667542 0.362524,-0.588941 0.403324,-0.535938 0.357411,-0.443989 0.471449,-0.447367 0.463513,-0.356622 0.477155,-0.338847 0.43129,-0.2472 0.347276,-0.154491 0.423196,-0.156581 0.398771,-0.137844 0.363762,-0.08246 0.425983,-0.102454 0.404619,-0.02938 0.428863,-0.04811 0.393821,0.007 0.355748,0.0081 0.369362,0.02539 0.345129,0.04453 0.319807,0.06405 0.364001,0.06933 0.39473,0.161272 0.867312,0.420643 0.465697,0.301209 0.398409,0.31635 0.435185,0.364144 0.504403,0.505391 0.773012,0.80319 0.903779,0.973178 0.857349,1.011726 2.002527,2.653994 1.991812,2.906626 1.970099,3.016759 1.916188,2.788404 1.194258,2.00682 1.292799,2.174981 1.767232,3.354211 1.23945,3.263995 1.025981,2.791494 0.733436,2.577726 0.730201,2.515437 0.52304,1.984677 0.628277,2.761707 0.473331,2.46576 0.374841,3.528888 0.147555,3.698269 0.08045,4.139111 -0.238207,9.211804 -0.228923,21.100654 -0.127279,20.431619 -0.0236,1.64483 -0.0012,1.65249 0.183794,1.30336 0.382329,1.21688 0.296601,0.82899 0.442018,0.91291 0.449852,0.93629 0.641245,0.98352 0.763278,0.88961 0.778771,0.75932 0.957754,0.74 1.161635,0.8537 1.097429,0.66919 1.058846,0.4677 0.78569,0.36507 1.142693,0.32429 1.682352,0.145 1.584625,0.075 1.6247,-0.0208 1.659328,-0.37466 1.559248,-0.42256 1.474983,-0.6517 1.167266,-0.83864 1.26558,-1.00939 1.191136,-1.17731 1.073453,-1.28281 1.222361,-2.17059 3.659101,-9.08683 5.78031,-13.27913 0.624845,-1.45101 0.507136,-0.855257 0.556009,-0.892859 0.592768,-0.845031 0.549876,-0.648408 0.482327,-0.483796 0.531041,-0.521236 0.425381,-0.3556 0.648017,-0.470301 0.835215,-0.529932 1.022545,-0.589439 0.892539,-0.404866 1.122147,-0.358874 1.29459,-0.336571 29.667792,-5.921123 48.13418,-9.786795 4.48747,-0.949621 3.81557,-0.644267 3.54716,-0.437779 3.68995,-0.353143 4.13471,-0.229464 4.38999,0.0014 5.10511,0.07274 1.81718,0.04607 5.02219,0.248306 1.09397,0.0414 0.97581,-0.06419 0.86328,-0.111668 0.57748,-0.177379 0.85792,-0.314651 0.59691,-0.38443 0.4512,-0.33938 0.65444,-0.528897 0.54737,-0.449436 0.47426,-0.393198 0.43347,-0.446199 0.50381,-0.556625 0.41701,-0.518161 0.45231,-0.573354 23.08663,-30.615466 2.11724,-2.740156 0.82385,-0.746545 0.55266,-0.594221 0.691,-0.616297 0.72121,-0.526598 0.8868,-0.513302 0.72967,-0.364115 0.51013,-0.195181 0.65649,-0.307797 1.47212,-0.509765 0.73004,-0.212206 0.74913,-0.187432 0.74377,-0.143783 0.7615,-0.120799 0.7127,-0.08332 0.8187,-0.04655 0.89897,0.0078 0.82576,0.06372 0.77697,0.101207 0.66563,0.107992 0.83282,0.173811 0.9091,0.272919 0.77871,0.254859 0.81015,0.346227 0.72459,0.33599 0.90412,0.46838 0.97374,0.609331 0.90724,0.623826 0.84649,0.746697 0.74179,0.711688 0.5693,0.689365 0.65657,0.853338 0.59534,0.824341 0.54831,1.015579 0.56737,1.04035 0.41929,0.999266 0.34955,1.362979 0.24849,1.130662 1.40968,9.715687 0.20128,4.350533 -0.14972,3.843974 -0.30173,3.999635 -0.53998,5.153918 -6.01149,35.852496 -0.10487,0.46961 -0.14842,0.46364 -0.19705,0.5011 -0.2326,0.40429 -0.33021,0.47968 -0.38479,0.40872 -0.52312,0.4308 -0.55325,0.34106 -0.52884,0.32223 -0.5044,0.30346 -0.34728,0.15449 -0.29842,0.11702 -0.32566,0.0816 -0.35289,0.0463 -0.32855,0.0271 -0.52415,-0.0244 -0.4075,-0.0754 -2.52076,-0.19686 -0.45637,-0.0376 -0.54204,-0.048 -0.44266,0.0306 -0.51044,0.0433 -0.47484,0.13993 -0.59973,0.1795 -0.5668,0.32344 -0.51796,0.28584 -0.58548,0.45049 -0.67744,0.63388 -0.58785,0.6496 -0.69322,0.81524 -21.16653,27.43457 -0.35172,0.55248 -0.37614,0.57124 -0.31365,0.55138 -0.24591,0.53868 -0.22146,0.51989 -0.23875,0.64874 -0.19003,0.61129 -0.17088,0.63605 -0.16251,0.74791 -0.1151,0.70863 -0.0168,0.63521 -0.0206,0.83083 0.0589,0.73261 0.11999,0.76175 0.22462,0.79674 0.26186,0.69198 0.59361,1.1752 9.28318,16.08196 0.45378,0.89383 0.39791,0.82123 0.39262,0.86195 0.29238,0.78406 0.19322,0.70536 0.14967,0.69936 0.17055,0.8778 0.036,0.90514 0.0169,0.88039 -0.0544,1.09029 -0.21007,1.94845 -0.24603,1.04331 -0.21967,0.67353 -0.31722,0.74858 -0.4273,0.75718 -0.55601,0.89284 -0.89079,1.11377 -0.80737,0.81852 -0.84033,0.6746 -0.68694,0.69499 -0.82073,0.5787 -9.9843,5.87253 -20.22322,11.72275 -1.10639,0.68227 -1.17953,0.73852 -0.67246,0.4891 -0.60971,0.46915 -0.64514,0.52463 -0.65299,0.6151 -0.54458,0.50363 -0.57989,0.55884 -0.48236,0.48378 -0.62296,0.70469 -0.62013,0.75894 -0.63627,0.83907 -0.61702,0.8637 -0.62914,0.9491 -0.64519,1.07984 -0.63107,1.30008 -0.45529,0.97319 -0.37144,0.82978 -0.75002,2.05393 -8.19965,24.07836 -0.56312,1.28724 -0.32439,0.63856 -0.29458,0.57613 -0.42194,0.7136 -0.46008,0.66404 -0.53336,0.72039 -0.62299,0.70466 -0.60154,0.63185 -0.65299,0.61509 -0.66658,0.59749 -0.79442,0.58295 -0.82169,0.54757 -0.81077,0.51113 -0.8761,0.47679 -0.84094,0.42141 -0.795,0.32984 -1.06092,0.38787 -1.09769,0.34007 -1.42512,0.31859 -1.33992,0.17693 -1.33456,0.1334 -1.74206,0.058 -3.02156,-0.0381 -8.37348,-0.45658 -43.56093,-3.31827 -36.806822,-2.51904 -1.160144,-0.19535 -0.623478,-0.10373 -0.531291,-0.13515 -0.569453,-0.18479 -0.477082,-0.2164 -0.551982,-0.31373 -0.582695,-0.40566 -0.534937,-0.44244 -0.400721,-0.46959 -0.375948,-0.48864 -0.240384,-0.51403 -0.227154,-0.4453 -0.19088,-0.55212 -0.171728,-0.52734 -0.129613,-0.52026 -0.06791,-0.49182 -0.04877,-0.46701 -0.03883,-0.252 0.0098,-0.29014 0.01275,-0.438 0.04886,-0.54209 0.08402,-0.64802 4.495151,-26.35328 0.152251,-1.6701 0.234319,-2.47176 0.176397,-16.06685 8.7e-5,-0.5046 -0.02964,-0.44224 -0.04877,-0.46702 -0.06791,-0.49181 -0.142456,-0.58931 -0.167877,-0.56982 -0.187009,-0.59465 -0.234683,-0.55786 -0.28437,-0.51964 -0.20945,-0.42228 -0.26923,-0.45238 -0.825488,-1.0729 -0.550542,-0.66431 -0.579265,-0.60284 -0.429402,-0.40803 -0.47341,-0.41368 -0.397123,-0.31452 -0.447972,-0.2782 -0.428922,-0.25342 -0.533094,-0.28882 -0.587139,-0.20776 -0.543642,-0.2017 -0.550382,-0.15998 -1.06258,-0.27038 -0.57998,-0.0978 -0.517431,-0.0669 -0.590686,-0.0108 -0.573004,0.0124 -0.627048,0.0934 -0.700329,0.14986 -1.226847,0.32389 -1.304904,0.57559 -0.591254,0.34222 -0.650824,0.41613 -0.623572,0.45147 -0.571817,0.46826 -1.089453,1.00723 -0.406244,0.48158 -0.42484,0.6087 -0.465423,0.70763 -0.385167,0.7614 -0.312029,0.70512 -0.26673,0.86476 -0.17616,0.67949 -0.103148,0.62326 -0.068,0.51743 -0.01272,0.23558 -0.187469,34.84388 -0.06867,2.79652 -0.09613,0.73345 -0.132826,0.68562 -0.158973,0.55068 -0.207786,0.58825 -0.570089,1.1771 -0.378445,0.71956 -0.451726,0.77598 -0.489867,0.72641 -0.508941,0.70161 -0.52545,0.62961 -0.587664,0.64945 -0.579894,0.55886 -0.617866,0.56002 -0.742776,0.59953 -0.745445,0.5455 -0.699677,0.45372 -0.650824,0.41611 -0.778565,0.40172 -0.743241,0.3465 -0.843708,0.36731 -0.963378,0.31281 -0.981087,0.2898 -0.859075,0.19595 -0.872833,0.12758 -0.84303,0.0651 -1.404104,-0.007 -0.869243,-0.0695 -0.815032,-0.15083 -0.795945,-0.12602 -0.876255,-0.17987 -0.790769,-0.16957 -0.741918,-0.20704 -0.673953,-0.21989 -0.710768,-0.26771 -0.637632,-0.32394 -0.656705,-0.34872 -0.675776,-0.37352 -0.620837,-0.45525 -0.639909,-0.48003 -0.620855,-0.45522 -0.691827,-0.59513 -0.585086,-0.55883 -0.617387,-0.65238 -0.569634,-0.68913 -0.589348,-0.86842 -0.678023,-1.03129 -0.428368,-0.75838 -0.422688,-0.80217 -0.336749,-0.78937 -0.746726,-2.18197 -0.45406,-1.90264 -0.274252,-2.27488 0.210079,-2.1782 z"
       id="path132"
       sodipodi:nodetypes="cccccccccccccccccccccccccccccccccccccccccccccccccccccccccccccccccccccccccccccccccccccccccccccccccccccccccccccccccccccccccccccccccccccccccccccccccccccccccccccccccccccccccccccccccccccccccccccccccccccccccccccccccccccccccccccccccccccccccccccccccccccccccccccccccccccccccccccccccccccccccccccccccccccccccccccccccccccccccccccccccccccccccccccccccccccccccccccccccccccccccccccccccccccccccccccccccccccccccccccccccccccccccccccccccc" />
    <path
       style="opacity:1;fill:none;stroke:#ffffff;stroke-width:1.08094;stroke-linecap:round;stroke-linejoin:round;stroke-miterlimit:4;stroke-dasharray:none;stroke-opacity:1"
       d="m 48.497745,194.67736 -2.30336,32.8448 -0.359485,2.78998 -0.03693,0.45679 -0.0924,0.53609 -0.122076,0.59846 -0.108417,0.66685 -0.141208,0.57369 -0.214324,0.62994 -0.280863,0.64451 -0.385166,0.76138 -0.371275,0.71255 -0.330616,0.58585 -0.493729,0.70725 -0.553446,0.66181 -0.577067,0.61302 -0.617886,0.56004 -0.66966,0.54327 -0.672328,0.48924 -0.724124,0.47252 -0.740436,0.40069 -0.656413,0.30774 -0.794996,0.32983 -0.754394,0.23093 -0.768111,0.16254 -0.897238,0.14632 -0.891885,0.10279 -0.812025,0.005 -0.658667,0.003 -0.782245,-0.0577 -0.817381,-0.24337 -0.720998,-0.22635 -0.822191,-0.26088 -0.955,-0.43736 -0.643758,-0.39013 -0.847901,-0.48733 -0.655973,-0.4513 -0.821786,-0.64725 -0.621568,-0.60059 -0.635094,-0.6754 -0.587338,-0.71211 -0.524548,-0.72002 -0.586482,-0.7195 -0.419434,-0.68085 -0.330763,-0.84317 -0.41794,-0.95867 -0.364994,-0.93147 -0.460923,-1.49163 -0.3981,-1.59538 -0.437428,-2.80681 0.01701,-10.18834 -0.02629,-8.56679 0.0073,-9.20957 0.157481,-10.23463 -0.0092,-5.93416 0.177014,-17.26139 L 20.636715,98.985884 20.432404,94.604451 20.24856,91.314712 19.820153,87.52744 19.479267,82.730947 18.841723,74.579772 18.735847,71.38669 18.474729,68.674734 18.346691,66.28733 18.24455,31.493716"
       id="path134"
       sodipodi:nodetypes="cccccccccccccccccccccccccccccccccccccccccccccccccccccccccccccccccc" />
    <path
       style="fill:none;stroke:#fefefe;stroke-width:1.05833;stroke-linecap:butt;stroke-linejoin:miter;stroke-miterlimit:4;stroke-dasharray:none;stroke-opacity:1"
       d="m 4.2990601,175.0779 22.8970569,0.0627"
       id="path61558" />
  </g>
</svg>
